/* XPM */
static char *d852214d8b5147be8d27335a9bdd1b80rHa5iYn27cJho8F0[] = {
/* columns rows colors chars-per-pixel */
"64 64 235 2 ",
"   c None",
".  c #010101",
"X  c #0A0603",
"o  c #0C0A04",
"O  c #0D0C0C",
"+  c #140D05",
"@  c #150E09",
"#  c #181307",
"$  c #1A1A19",
"%  c #0C150F",
"&  c #251908",
"*  c #301B10",
"=  c #112B14",
"-  c #2A270D",
";  c #37240C",
":  c #372817",
">  c #383514",
",  c #262D18",
"<  c #2A2928",
"1  c #38332C",
"2  c #303030",
"3  c #3B3B3A",
"4  c #3E3731",
"5  c #313027",
"6  c #460E0F",
"7  c #671413",
"8  c #453916",
"9  c #583617",
"0  c #502B10",
"q  c #763A1A",
"w  c #6C3518",
"e  c #463A28",
"r  c #433E37",
"t  c #553824",
"y  c #713828",
"u  c #174B27",
"i  c #16552B",
"p  c #0D4824",
"a  c #265828",
"s  c #395624",
"d  c #2C512C",
"f  c #186A35",
"g  c #1A773C",
"h  c #1E672E",
"j  c #29632B",
"k  c #247836",
"l  c #326535",
"z  c #2D451D",
"x  c #494419",
"c  c #584E1B",
"v  c #67461C",
"b  c #774718",
"n  c #65571E",
"m  c #554627",
"M  c #4B433A",
"N  c #57493B",
"B  c #4E522A",
"V  c #695527",
"C  c #765628",
"Z  c #644C36",
"A  c #695438",
"S  c #6A4A29",
"D  c #5C6423",
"F  c #686625",
"G  c #776B24",
"H  c #74712D",
"J  c #1A7A41",
"K  c #385642",
"L  c #464645",
"P  c #4A4A4A",
"I  c #474748",
"U  c #5A5148",
"Y  c #5C5C5C",
"T  c #575654",
"R  c #50524C",
"E  c #695947",
"W  c #755947",
"Q  c #645D5A",
"!  c #724D41",
"~  c #496B50",
"^  c #78654A",
"/  c #6B655A",
"(  c #776758",
")  c #5F6562",
"_  c #646464",
"`  c #6B6B6C",
"'  c #686766",
"]  c #756D64",
"[  c #737373",
"{  c #7B7B7B",
"}  c #7A7876",
"|  c #74716D",
" . c #8C321D",
".. c #A7241B",
"X. c #8D3421",
"o. c #B43522",
"O. c #871B17",
"+. c #E43422",
"@. c #86481A",
"#. c #89551A",
"$. c #96581C",
"%. c #A35B1D",
"&. c #A04A1D",
"*. c #9E601A",
"=. c #A9651B",
"-. c #B36B1D",
";. c #BD721E",
":. c #875825",
">. c #9A4F26",
",. c #A74627",
"<. c #A75A22",
"1. c #BA5528",
"2. c #887829",
"3. c #936D2F",
"4. c #AB6322",
"5. c #B96822",
"6. c #B07A26",
"7. c #C7771E",
"8. c #D27E1E",
"9. c #C9542A",
"0. c #DB542D",
"q. c #D6582D",
"w. c #CD4628",
"e. c #EA5D31",
"r. c #E3582E",
"t. c #C86A27",
"y. c #C47221",
"u. c #CC7324",
"i. c #CE7C21",
"p. c #D27526",
"a. c #DA7C26",
"s. c #D47A24",
"d. c #F46933",
"f. c #F2752E",
"g. c #8B775A",
"h. c #8C7050",
"j. c #8A7664",
"k. c #957C65",
"l. c #837B7B",
"z. c #15853E",
"x. c #25873B",
"c. c #238B43",
"v. c #218543",
"b. c #2A9B46",
"n. c #289545",
"m. c #2DA547",
"M. c #31AD4A",
"N. c #31B04B",
"B. c #7B877D",
"V. c #98862C",
"C. c #A68C2E",
"Z. c #AC9A33",
"A. c #BA9A36",
"S. c #AB9330",
"D. c #B8A234",
"F. c #D8811E",
"G. c #E3871F",
"H. c #DC8223",
"J. c #D68120",
"K. c #C89935",
"L. c #E38523",
"P. c #E68922",
"I. c #EC8D22",
"U. c #F19022",
"Y. c #F58A26",
"T. c #C7A936",
"R. c #DBA83A",
"E. c #D8B73A",
"W. c #CDB836",
"Q. c #E3B43C",
"!. c #E6BB3D",
"~. c #E9BE3D",
"^. c #E0AC3B",
"/. c #DEC23B",
"(. c #EBC43E",
"). c #EECB3F",
"_. c #E6C43D",
"`. c #F1D43F",
"'. c #998266",
"]. c #8C8065",
"[. c #A98A68",
"{. c #A8956B",
"}. c #AC9376",
"|. c #B39778",
" X c #AE916F",
".X c #B9A475",
"XX c #99815F",
"oX c #C8A87C",
"OX c #D2B056",
"+X c #F5D741",
"@X c #ECCB44",
"#X c #FCE347",
"$X c #7F7F80",
"%X c #7F8081",
"&X c #848383",
"*X c #8A8A8A",
"=X c #979696",
"-X c #918F8E",
";X c #A4A19E",
":X c #ABACAB",
">X c #A5A5A5",
",X c #BBBBBB",
"<X c #B5B4B4",
"1X c #B0AEAC",
"2X c #A09F9F",
"3X c #C6A888",
"4X c #D7B885",
"5X c #D8B694",
"6X c #D1AD87",
"7X c #E8B48B",
"8X c #E9BB95",
"9X c #E9B48D",
"0X c #DDC390",
"qX c #EAC898",
"wX c #F1C49D",
"eX c #EBC48F",
"rX c #ECC8A3",
"tX c #F5CCA5",
"yX c #F6CFA8",
"uX c #F4CAA3",
"iX c #F6D0A9",
"pX c #F9D2AB",
"aX c #C8C7C8",
"sX c #CED1D6",
"dX c #D6D7D9",
"fX c #C8CCD2",
"gX c #DBDDE1",
"hX c #DFE1E3",
"jX c #E3E3E3",
"kX c #EBEBED",
"lX c #E6E6E9",
"zX c #F3F3F3",
"xX c #FAFAFA",
"cX c #F8F8F8",
"vX c #EFEFF0",
/* pixels */
"                                                                                                                                ",
"                                                                                                                                ",
"                                                                                                                                ",
"                                                                                                                                ",
"                                                                                .                                               ",
"                                                                              . # # .                                           ",
"                                                                              . q 1.6 X . . .                                   ",
"                                                                            . . @.d.f.<.@.@.w & .                               ",
"                                                                          X 0 X.X.1.d.f.f.f.Y.a.0 .   . .                       ",
"                                                                  . X X & X.0.y 2.v 0.d.f.f.f.Y.L.0 . > c X                     ",
"                                                                  o @.,.9.e.X.V.#X3.9.d.d.f.f.Y.Y.=.. F @Xx .                   ",
"                                                                  . w 0.e.q.S /.#XZ.y 0.q.9.1.<.%.%.$ 2.#XD.o                   ",
"                                                                X 0 X.9.e.9.C @X`.+XV.9 z = * X.X.0 @ A.@XOX& . .               ",
"                                                              X q 0.0.r.r.q.V !.).`.+XZ.f u w w.0.0.0 z C.T.: 9 +               ",
"                                          . .                 + <.q.0.0.r.e.q A.Q.!.(.C.f z w w ,.d.,.h z n X. .X .             ",
"                                          # n #             . 0 &.q.r.r.r.e.,.x A.R.A.B z.i R :X].,.q.5 g p t N N N 5 X         ",
"                                          8 ).Z.- .         ; 9.+.o.,.X.o.w.9 u 5 A 8 i z.f ,XcXlXM o.e d ].5XtXiXiXqXk.$       ",
"                                          > _.).D.- .     . w w.X.h.=X<X:XU e k..X6X3X}./ 3 :XzXaXO $ E 5XpXpX3Xh.;XpXpX[.O     ",
"                            + - o .       > E.(.`.D.- .   X &. .l.gXlXlX2Xj.9X8XwXwXyXpXpX5Xj.*X;X$ ( wXpXiXpX5X Xj.rXpXtXP .   ",
"                            8 E.S.x o     - E.!._.`.W.- = = ; Q lXvXkX>Xj.5X9X8XwXtXiXiXiXiXyX3X/ ] rXpXiXiXpXpXpXwXtXiXpX'..   ",
"                            - T.(._.S.x X & W.E.!.).`.Z.k m.j ,XzXvXhX| oX9X9X8XtXiXyXiXyXyXyXpXqXuXyXyXyXpXpXyXiXiXiXiXpX3XX   ",
"                            X V.Q._.`.S., , T.R.Q.!.).E.l m.~ kXcXzX,Xk.7X9X8XuXpXiXyXiXyXyXpXyXyXyXyXyXyXyXyXyXiXiXiXiXpX|.X   ",
"                            . c ^.K.F j x.j A.R.^.!.(.T.l x.&XxXcXxX=X X7X9XwXtXyXyXpXiXyXtXpXtXiXyXyXyXyXyXyXyXiXiXyXyXpXk..   ",
"                        . . . & V.x x.N.N.j 3.R.R.Q.K.D x.k :XxXcXxX-X X7X8XwXyXiXyXyXrXj.h.5XpXyXyXyXyXyXyXyXyXyXyXyXyXtXM .   ",
"                      . > 2.n > - f m.M.M.m.a n G n s x.n.~ dXxXcXxX=Xk.9X8XuXyXpXpX5X! 6 _ ` -XrXyXuXuXtXtXtXuXuXrXrXpX}.O     ",
"                        8 _.)./.D.V.D j x.m.M.x.x.x.m.x.~ ,XxXxXxXxX} U 9X8XwXtXpX3Xy 7 7 l.$X6 Z }.8XuXuXuXuXtX8X|.5X}.<       ",
"                        o V.~.~.`.`.`.W.D x.M.M.N.b.l B.gXxXxXxXxXsXM 3 k.9XwXyXtX( * O...O.7 7 6 T / j.j.k.k.] U 3 e O         ",
"                          - T.Q.!._.`.+XW.i M.M.x.~ <XcXxXxXkXlXsXQ T { T ( |.8XpX8Xk.X.+.+.o...6 *XjX{ . X $ =X:X< .           ",
"                        . = H E.R.!.(.).W.s m.m.l aXxXvX,X]._ _ P : 2 } &XI [ j.uXyXiX}.X.X.] o.7 ` ,X_ O   $ 1XT .             ",
"                    . X % x.j S.^.R.Q.(.C.j M.x.*XxXsX[ T T _ ` &X$XY L _ T <XQ 5XpXyXpXl.l.,XO...* L :X<   X $ X               ",
"            . o - c 2.G h b.c.s K.R.R.K.x x.N.l sXsXY ' ) %XgX[ $X&X*X[ 3 r P 3 j.pXyXpXrX] ` ! W ! W l.1 X                     ",
"          . > D.E.@X`.2.g n.b.k s G n z x.N.m.~ gX' / ` ) ` *X) $X*X*X` &X[ < 2 < 3XpXpXpX8X8XuXyXyXtXrX5XM .                   ",
"            & V.E.!.E.B c.c.n.b.c.g v.b.m.M.m.) 1XT _ ' [ ' _ ` [ [ &X[ &X-Xm '.h.E 6XiXiXpXyXyXyXyXyXyXpXk.X                   ",
"              o x S.K.s c.v.c.n.b.b.b.m.m.m.m.~ $XI Y _ ` Y A :.:.:.Z / Y M 6XeXeX[.E tXtXiXpXyXuXwX5XwXuX^ .                   ",
"                . o > a c.v.x.x.J v.b.b.m.m.m.d ` [ T ) Z -.L.U.Y.U.P.:.Y M {.6XeX4XE j.8XwXwX8X9Xk.[.6X'.$                     ",
"                    . u f i s D H F h b.b.b.m.u [ :XR Z y.L.I.U.U.U.U.L.t g..Xg.g.'.g.B N ^ ^ E e $ < : O                       ",
"                  . o > H D./.`.#X`.G h n.b.b.f Y T P >.a.y.P.U.U.U.P.y.9 ].oXoX4X6XoXoX3XN ; < 2 -X` .                         ",
"              . + n Z./.(.).).).).`.D.a n.n.b.l fX$XM <.$.>.L.I.P.*.A E Q 3 ].| 4XqXqXqXqXN L ' _ _ U - + .                     ",
"              . - D._.~.!.!.!.!.!.(.T.z c.n.z.~ lXzX} w b #.H.8.C T B.*X*X' =X[ {.eX0XqX0XM Y { $X! y.H.7.#.; X                 ",
"                . # x V.R.!.Q.Q.Q.!.V.u c.n.z.) zXxX,Xv w <.s.C P [ _ *X&X` M e S G V / N 5 $X` _ <.P.U.U.L.=.@.+               ",
"                  X c 2.> D V.T.R.K.1 f v.v.u :XxXxXkXN b t.<.4 *XdX' } U :.i.P.I.8.b / &XY ,X` E y.L.I.U.5.W 3.t %             ",
"                X F _.E.s g i a s a f J g i [ zXcXcXcX:X9 t.y T Y [ _ N 5.L.I.U.U.U.U.-.E ` L [ W u.a.P.L.3.sX:X>X=XO           ",
"                o V.T.T.F x.J J g J J f u } lXcXzXzXcX:X9 #.t ' ' ` Y $.a.H.I.I.U.I.-.h.<XY I &XE 5.p.s.@.S ;X,X-XhX3           ",
"                . X + & # u v.g g f i K >XvXzXvXzXzXjXE 7.*.: _ _ ` A u.p.a.L.I.U.U.=.N gXaXR [ Q :.t.4.4.y.C } &X{ < .         ",
"                        . % i f u K &XdXvXkXkXkXvXkX} $.U.U.$.d P ) C t.t.s.H.L.P.F.h.} | aXY P ) N <.t.p.>.M :XdX3 .           ",
"                        . { :X*X:XdXlXlXlXlXlXlXlX&X#.I.U.U.5.} -XR Z y.t.p.a.H.=.S ,XzX/ < $ Y ,XL & 0 b W ,X=X*XP .           ",
"                      . $ ,XgXgXgXgXgXgXgXhXlXsX] #.I.U.U.U.J.E | 3 M $.t.t.p.<.v $ =XhX=X. . $ 3 O     . $ 2XaX$ X             ",
"                      o 5 <XsXfXfXfXsXgXhXdX=XZ =.I.U.U.U.U.U.J.5.#.E ^ @.$.<./ aX` : ] ` O                 O 2 X               ",
"              X +     + n Y aXsXsXdXsX,X-XE #.F.U.U.U.U.I.I.U.U.U.*..XqX3X{.A } lX1X9 # .                                       ",
"              > V.+   o C.3.A T _ ^ W :.=.F.U.U.U.U.U.U.J.G.6.J.;.b B.{..X.X{.U l.1X5 X                                         ",
"            . c @XV . . n K.H c @.#.L.U.U.U.I.U.U.U.U.U.;.$.*.*.b H oX.X{.{.].m #.e X                                           ",
"            . n @XT.# * #.#.$.8.7.v H.U.U.U.U.U.U.U.U.U.I.=.=.b V .XoXoX0X{.V ;.=.# .                                           ",
"          . . n E.Z.#.a.U.U.U.G.5.b P.P.I.U.U.U.U.I.U.U.U.G.4.m H g.XX^ W #.F.U.i.=.0 X                                         ",
"        . & $.=.:.=.G.U.U.I.L.a.b -.L.P.P.I.I.U.U.U.U.U.U.-.9 {.|.g.Z v -.P.I.I.P.U.8.#.; .                                     ",
"        . ; 5.s.a.L.P.P.P.a.s.5.q s.a.L.P.I.U.I.I.U.I.U.U.F.$.m e b %.u.a.a.L.L.7.$.-.b m 3 X                                   ",
"          . & w $.-.y.7.p.7.y.>.$.p.p.a.L.L.P.P.I.I.I.I.U.U.I.=.q b 1.t.t.p.s.a.4.( U 2X$X,X3                                   ",
"              . . o # & & & & & %.t.p.s.s.H.L.L.L.I.I.8.s.I.i.=.=.S t %.t.t.t.t.h.dX>X=X>XR < .                                 ",
"                              + -.t.9.t.p.p.a.a.a.L.a.7.v @.3.( r :X<X1 & ; 0 0 4 { } $ $ X .                                   ",
"                              X b t.t.t.t.t.p.p.a.a.u.h.1X[ { kX:X{ fX) .       . . . .                                         ",
"                                o ; 0 b #.<.5.5.t.p.%.=XvXjX{ >X,Xr < $ .                                                       ",
"                                      . X o + & * 0 * M [ &XP O $ X .                                                           ",
"                                                      . . . .                                                                   ",
"2 2 2 2 2 2 2 2 2 2 2 L L P L P P I P P P L I I I 3 e m 2 2 2 2 2 I L P L P P P P P P I I I P P L 4 e e e 2 2 2 2 2 2 2 2 2 2 2 ",
"2 2 2 2 2 2 2 2 2 2 2 Y ` _ Y ' ' _ ` ` ` ` _ ) _ M m m 1 2 2 2 2 Y ` _ Y _ ` _ | ` ` _ ' _ _ _ Y r m n e 2 2 2 2 2 2 2 2 2 2 2 "
};
