/* XPM */
static char *_0007fb4ff1641abf7ab8ed7cb26961a8ZxI5GyK1NZ7J6DE[] = {
/* columns rows colors chars-per-pixel */
"64 64 235 2 ",
"   c None",
".  c #010101",
"X  c #0A0603",
"o  c #0C0A04",
"O  c #0C0C0B",
"+  c #140E06",
"@  c #181407",
"#  c #1A1918",
"$  c #0C150F",
"%  c #251908",
"&  c #301B10",
"*  c #112B14",
"=  c #2A270D",
"-  c #37240C",
";  c #372817",
":  c #383514",
">  c #262D18",
",  c #2A2928",
"<  c #38332C",
"1  c #303030",
"2  c #3B3B3A",
"3  c #3E3731",
"4  c #313027",
"5  c #460E0F",
"6  c #671413",
"7  c #453916",
"8  c #583617",
"9  c #502B10",
"0  c #763A1A",
"q  c #6C3518",
"w  c #463A28",
"e  c #433E37",
"r  c #553824",
"t  c #713828",
"y  c #174B27",
"u  c #16552B",
"i  c #0D4824",
"p  c #265828",
"a  c #395624",
"s  c #2C512C",
"d  c #186A35",
"f  c #1A773C",
"g  c #1E672E",
"h  c #29632B",
"j  c #247836",
"k  c #326535",
"l  c #2D451D",
"z  c #494419",
"x  c #584E1B",
"c  c #67461C",
"v  c #774718",
"b  c #65571E",
"n  c #554627",
"m  c #4B433A",
"M  c #57493B",
"N  c #4E522A",
"B  c #695527",
"V  c #765628",
"C  c #644C36",
"Z  c #695438",
"A  c #6A4A29",
"S  c #5C6423",
"D  c #686625",
"F  c #776B24",
"G  c #74712D",
"H  c #1A7A41",
"J  c #385642",
"K  c #454545",
"L  c #4A4A4A",
"P  c #474748",
"I  c #5A5148",
"U  c #5C5C5C",
"Y  c #575654",
"T  c #50524C",
"R  c #695947",
"E  c #755947",
"W  c #645D5A",
"Q  c #724D41",
"!  c #496B50",
"~  c #78654A",
"^  c #6B655A",
"/  c #776758",
"(  c #5F6562",
")  c #646464",
"_  c #6B6B6C",
"`  c #686766",
"'  c #756D64",
"]  c #737373",
"[  c #7B7B7B",
"{  c #7A7876",
"}  c #74716D",
"|  c #8C321D",
" . c #A7241B",
".. c #8D3421",
"X. c #B43522",
"o. c #871B17",
"O. c #E43422",
"+. c #86481A",
"@. c #89551A",
"#. c #96581C",
"$. c #A35B1D",
"%. c #A04A1D",
"&. c #9E601A",
"*. c #A9651B",
"=. c #B36B1D",
"-. c #BD721E",
";. c #875825",
":. c #9A4F26",
">. c #A74627",
",. c #A75A22",
"<. c #BA5528",
"1. c #887829",
"2. c #936D2F",
"3. c #AB6322",
"4. c #B96822",
"5. c #B07A26",
"6. c #C7771E",
"7. c #D27E1E",
"8. c #C9542A",
"9. c #DB542D",
"0. c #D6582D",
"q. c #CD4628",
"w. c #EA5D31",
"e. c #E3582E",
"r. c #C86A27",
"t. c #C47221",
"y. c #CC7324",
"u. c #CE7C21",
"i. c #D27526",
"p. c #DA7C26",
"a. c #D47A24",
"s. c #F46933",
"d. c #F2752E",
"f. c #8B775A",
"g. c #8C7050",
"h. c #8A7664",
"j. c #957C65",
"k. c #837B7B",
"l. c #15853E",
"z. c #25873B",
"x. c #238B43",
"c. c #218543",
"v. c #2A9B46",
"b. c #289545",
"n. c #2CA348",
"m. c #2DA647",
"M. c #31AD4A",
"N. c #31B04B",
"B. c #7B877D",
"V. c #98862C",
"C. c #A68C2E",
"Z. c #AC9A33",
"A. c #BA9A36",
"S. c #AB9330",
"D. c #B8A234",
"F. c #D8811E",
"G. c #E3871F",
"H. c #DC8223",
"J. c #D68120",
"K. c #C89935",
"L. c #E38523",
"P. c #E68922",
"I. c #EC8D22",
"U. c #F19022",
"Y. c #F58A26",
"T. c #C7A936",
"R. c #DBA83A",
"E. c #D8B73A",
"W. c #CDB836",
"Q. c #E3B43C",
"!. c #E6BB3D",
"~. c #E9BE3D",
"^. c #E0AC3B",
"/. c #DEC23B",
"(. c #EBC43E",
"). c #EECB3F",
"_. c #E6C43D",
"`. c #F1D43F",
"'. c #998266",
"]. c #8C8065",
"[. c #A98A68",
"{. c #A8956B",
"}. c #AC9376",
"|. c #B39778",
" X c #AE916F",
".X c #B9A475",
"XX c #99815F",
"oX c #C8A87C",
"OX c #D2B056",
"+X c #F5D741",
"@X c #ECCB44",
"#X c #FCE347",
"$X c #7F7F80",
"%X c #7F8081",
"&X c #848383",
"*X c #8A8A8A",
"=X c #979696",
"-X c #918F8E",
";X c #A4A19E",
":X c #ABACAB",
">X c #A5A5A5",
",X c #BBBBBB",
"<X c #B5B4B4",
"1X c #B0AEAC",
"2X c #A09F9F",
"3X c #C6A888",
"4X c #D7B885",
"5X c #D8B694",
"6X c #D1AD87",
"7X c #E8B48B",
"8X c #E9BB95",
"9X c #E9B48D",
"0X c #DDC390",
"qX c #EAC898",
"wX c #F1C49D",
"eX c #EBC48F",
"rX c #ECC8A3",
"tX c #F5CCA5",
"yX c #F6CFA8",
"uX c #F4CAA3",
"iX c #F6D0A9",
"pX c #F9D2AB",
"aX c #C8C7C8",
"sX c #CED1D6",
"dX c #D6D7D9",
"fX c #C8CCD2",
"gX c #DBDDE1",
"hX c #DFE1E3",
"jX c #E3E3E3",
"kX c #EBEBED",
"lX c #E6E6E9",
"zX c #F3F3F3",
"xX c #FAFAFA",
"cX c #F8F8F8",
"vX c #EFEFF0",
/* pixels */
"                                                                                                                                ",
"                                                                                                                                ",
"                                                                                                                                ",
"                                                                                                                                ",
"                                              .                                                                                 ",
"                                          . @ + .                                                                               ",
"                                  . . . X 5 4....                                                                               ",
"                              . % 8 +.+.<.p.s.+.. .                                                                             ",
"                      . .   . 9 i.Y.d.d.s.s.<.....9 X                                                                           ",
"                    X N : . 9 L.Y.d.d.s.s.e.c 1.t 9...% X X .                                                                   ",
"                  . z @XB X *.Y.Y.d.d.d.s.8.2.#XV...w.8.>.+.+                                                                   ",
"                  o D.#X1.+ $.$.#.4.8.0.e.0 Z.+X_.A 9.w.9.q .                                                                   ",
"              . . # E.@XD.+ 9 ....& > 4 7 V.+X+X@XV 8.w.<...9 o                                                                 ",
"              + 6 ; T.C.a 9 9.9.q.q i d Z.#X+X@X@Xc 0.w.e.9.9.0 X                                                               ",
"            . X ....b p d >.w.X.0 q 4 d S.@X!.^.A.0 e.e.9.9.0.>.+                 . .                                           ",
"        X 4 M M M 8 i l.4 e.>.&X:XJ u l.N K.R.A.z >.w.e.9.w.8.>.9 .             @ b @                                           ",
"      # j.qXyXyXyX5Xh.k w ..L jXcX,XH H y w B 4 i 6 <.X...>.q.q.8.&         . = S.).7                                           ",
"    O }.pXpX3X/ 3XpXpX5XE % O ,XzX:Xs ^ }.3X6X.Xh.w Y 1X<X2XE ..q.0 .     . = D.`._.:                                           ",
"  . M tXpXrXh.}.5XpXyXpXrX/ $ 2X'.h.5XiXpXyXuX8X9X9Xh.2XlXkXgXk.| %.X   . = T.`._.E.:       . o = +                             ",
"  . '.pXyXrXrXyXpXyXyXpXpXyXh.W 3XyXpXiXiXiXiXuX9X9X9Xg.:XkXkXlXW - * * = T.`.(.!.E.=     o z C.E.7                             ",
"  O 3XpXyXyXpXyXyXyXpXyXyXpXrXrXpXiXiXiXiXiXiXtXwX9X9X6X' hXvXcX,Xp m.j Z.`.).!.Q.R.@ X 7 S.).(.T.=                             ",
"  X }.pXyXpXyXyXyXpXyXyXpXyXyXyXiXiXiXiXiXiXiXyXuX8X9X9Xj.<XcXzXkX! m.k E.).(.Q.^.T.> > S.`._.Q.V.X                             ",
"  . j.pXyXyXpXyXyXyXyXyXyXyXyXyXiXiXtXiXiXiXiXiXtXwX9X9X X2XxXcXxX].z.h D.).Q.R.R.D.h z.h D T.R.x .                             ",
"  . m rXpXtXyXyXuXyXyXyXyXyXtXtXyX8X/ h.rXiXiXiXtXwX9X9X X-XxXcXxX1Xz.z.x K.^.R.R.1.z.N.M.j a V.= . . .                         ",
"    O }.pXyXrXuXuXuXtXtXuXuXyXrX}.' W 5 R 5XpXpXiXrX8X9Xj.=XxXcXxXlX! z.z.a D V x h m.N.M.z.g = : b 1.: .                       ",
"      , }.5X}.8XuXuXtXtXwX8X}.Q & k.k.6 6 t 3XpXiXrX8X9XI $XxXcXxXxX,X! z.N.z.z.z.M.M.z.h S V.D./.)._.7                         ",
"        O w e I / j.j.j.h.) Y 5 6 6  . .o.5 / tXtXwX8Xj.e P dXxXxXcXxXdXB.j m.M.M.M.z.S /.`.`.).!.!.V.X                         ",
"          . , :X=X# . . k.jX-X5 o. .O.O.o.j.rXyX8X X/ Y k.T Y sXlXkXcXxXcX<X! z.M.M.p T.+X`.)._.Q.W.=                           ",
"            . Y 1X#   O ) ,X_ 6 X.h.....=XpXyXuXh.] P &X$X1 ; L ) ` %X,XvXxXaXk m.m.p E.).(.Q.^.Q.F * .                         ",
"              . # O   , 1X2 &  .o.,Xk.h.pXyXyX5XW <XY ) K U $X$X_ ) Y Y } sXxX*Xj M.h C.(.Q.R.R.C.h z.$ . .                     ",
"                    . 1 { ~ R Q Q _ ' rXyXpXpXj.2 L 2 2 ] &X*X$X] dX&XU ` W sXsXk M.v.z A.R.R.K.a z.n.u F 1.x = o .             ",
"                  . m 8XuXiXyXtXyX5XrXyXyXpX3X, 1 , { &X_ *X&X&X` *X_ W } ) ^ gX! m.M.z.l B F a z.v.x.z.1.`.`.E.A.: .           ",
"                  . j.pXyXyXtXyXiXiXiXiXpX6XZ g.j.n -X&X] %X[ ] _ ) _ ] _ ) Y <X! M.N.M.v.c.j x.v.b.x.x.S R.!.E.V.@             ",
"                  . g.tXrX8X8XuXyXiXiXtXrXE {.eXeX4XL Y ^ Z ;.;.;.Z Y _ ) Y L [ ( n.n.n.n.n.n.n.b.x.x.x.a K.C.z o               ",
"                    # j.6X[.j.8XwXwXwX7Xf.R 0X0X4X[.m U ;.G.U.U.I.L.=.C ( Y ] _ u n.n.n.v.b.c.j H x.c.x.p : + .                 ",
"                      O & , # w R ~ ~ M m f.XXXXf.|.f.w G.U.U.U.U.I.L.t.M Y :X] i n.n.v.b.g S G D a u d i .                     ",
"                        . _ -X1 , - M 6XoXoXoXoX4X3X].x t.P.U.U.U.I.t.p.#.L Y ( k n.v.b.d F +X+X+X/.A.G : o .                   ",
"                    . + = I ) ) ) m M qXqXqXtX0X' ].3 W R Z &.P.U.H.#.:.,.e $XaXk v.b.b.p A.+X@X@X@X).).E.Z.b + .               ",
"                . - @.-.H.t.Z k.[ U a 0XqXqX0X X] -X) *X&X$XY V J.H.@.0 0 [ zXjXk b.b.x.y T.@X!.!.!.!.Q.(.(.D.= .               ",
"              + +.=.P.U.U.P.3.` _ $X1 I R Z V A 7 m _ &X*X_ ] P v a.,.c q ,XxXcX( f x.x.y 5.Q.^.Q.!.Q.W.V.z @ .                 ",
"            $ r 2.E -.U.I.p.t.R _ ,XU $XW v 7.U.P.u.;.I { ) dX-X2 ,.r.0 I kXcXxX:Xu c.c.d z A.R.T.V.D l 1.x X                   ",
"          O =X>X:XsXg.F.I.p.y.R ] L _ R =.U.U.U.U.I.L.4.M ) ] Y Y A r.8 >XxXcXcXvX] u f H u s a p u f a W.).D .                 ",
"          2 hX-X,X;XA @.a.i.r.R &XP U <Xg.=.P.U.I.P.p.p.#.Y } ) _ r @.8 :XcXzXcXcXlX{ y H H H H f f f F K.T.V.o                 ",
"        . , [ &X[ v y.$.3.r.@.W ] T aXgXM *.U.U.Y.P.p.i.y.Z ] ) ( ; #.6.R hXzXvXzXzXvX>XJ u d H f c.y @ % + X .                 ",
"          . 2 dX:Xe :.i.r.,.M ) L U aX] k.g.7.G.L.L.i.r.r.V ) L e #.U.U.&.{ kXkXkXkXkXvXdX*XJ y g g $ .                         ",
"          . P *X=X,XE v 9 % K ,X( # , ) vX,Xv $.H.p.y.r.r.C L -X[ *.U.U.I.@.&XlXlXlXlXlXlXlXsX>X-X:X{ .                         ",
"            . , aX2X> .     O 1 # . . =XhX=X# A ,.y.r.r.%.m s ' E 7.U.U.U.I.@.' sXlXjXgXgXgXgXgXgXdX,X# .                       ",
"              . , $                 X } ' ; ' fX/ $.#.;.~ R @.-.J.U.U.U.U.U.U.*.C =XsXhXgXsXsXfXfXsX<X4 +                       ",
"                                      . % 8 1XlX{ Z {.oXeX.X&.U.U.U.U.U.U.U.U.U.F.@.R -X,XfXsXdXsXaXU B o     O X               ",
"                                        X , :X$XI {..X.X{.f.b -.J.=.H.J.I.U.U.U.U.U.F.*.;.~ / ^ Y Z V.V.o   @ V.:               ",
"                                          . w @.n ].{.{.{..X~ v #.&.#.-.U.U.I.U.U.U.U.U.U.G.@.v 8 F A.B . . B @Xx .             ",
"                                          . @ *.-.B {.0X0XoXoXB v *.*.I.I.U.U.U.U.U.U.U.U.J.q y.F.#.@.@.& $ T.@Xb .             ",
"                                        X 9 *.7.U.J.;.Z ~ ].g.~ x *.P.U.U.U.I.U.U.U.U.I.I.L.v 4.G.U.U.U.H.@.Z.E.c X .           ",
"                                    . - @.u.U.P.I.I.P.4.c Z f.|.{.n -.U.U.U.U.U.U.I.I.P.P.L.=.+.p.L.I.I.U.G.*.#.&.#.% .         ",
"                                  . 2 A v =.$.-.P.H.H.p.y.,.v r n #.F.U.U.U.I.I.U.I.I.G.L.p.a.v 4.a.L.L.P.P.P.p.p.4.- .         ",
"                                  2 <X[ ;XI / 3.p.a.i.r.r.,.0 v *.I.U.I.I.U.I.I.I.P.P.H.p.i.i.@.#.r.y.y.6.t.=.@.q % .           ",
"                                . , T >X=X:XgXg.t.t.r.r.,.r A 3.*.u.P.7.H.P.P.P.L.L.p.p.i.r.r.*.% % % % % @ + . .               ",
"                                  . . # # { $X< 9 9 & % < ,X1Xm / 2.+.c 6.L.L.p.p.i.p.i.r.r.8.=.+                               ",
"                                        . . . .       . ) aX[ :XkX[ ] 1Xg.y.p.p.i.i.i.r.r.r.r.v X                               ",
"                                                      . # , 2 ,X>X[ jXvX-X,.i.r.4.4.$.@.0 8 - X                                 ",
"                                                          . X # O P *X] K - - & % + o . .                                       ",
"                                                                  . . . .                                                       ",
"1 1 1 1 1 1 1 1 1 1 1 < w w 1 P P P P P P P L L P P P K P P K 1 1 1 1 1 n w 2 L L K P L P L K P P K L P K 1 1 1 1 1 1 1 1 1 1 1 ",
"1 1 1 1 1 1 1 1 1 1 1 n c x e ( ) ) ) ` _ _ } _ ` ` _ Y ) _ U 1 1 1 1 < x n K ) ) ` ` _ _ } ` ` ) U ` _ Y 1 1 1 1 1 1 1 1 1 1 1 "
};
