/* XPM */
static char *cc5a75f990024f60d18b96938d9804a3KAsPAgw8Q1quusKm[] = {
/* columns rows colors chars-per-pixel */
"64 64 123 2 ",
"   c None",
".  c #002600",
"X  c #002E00",
"o  c #043200",
"O  c #023D00",
"+  c #123B12",
"@  c #0B4001",
"#  c #154402",
"$  c #005F00",
"%  c #2C5A04",
"&  c #315E04",
"*  c #026000",
"=  c #0D6301",
"-  c #1B6802",
";  c #007F00",
":  c #2F6F04",
">  c #326004",
",  c #3D6905",
"<  c #237D03",
"1  c #3F7605",
"2  c #407705",
"3  c #437905",
"4  c #4F7C06",
"5  c #008000",
"6  c #008B00",
"7  c #0C8F01",
"8  c #128701",
"9  c #148802",
"0  c #0C9001",
"q  c #159402",
"w  c #1A9602",
"e  c #229703",
"r  c #2C9204",
"t  c #239803",
"y  c #2D9B04",
"u  c #319E04",
"i  c #2EA004",
"p  c #32A004",
"a  c #3CA305",
"s  c #418C05",
"d  c #598107",
"f  c #42A605",
"g  c #4DA106",
"h  c #45A806",
"j  c #4BAA06",
"k  c #54AF07",
"l  c #59AE07",
"z  c #56B007",
"x  c #5BB207",
"c  c #5EB408",
"v  c #77A30A",
"b  c #7BA50A",
"n  c #7FA80A",
"m  c #6CB609",
"M  c #6BB909",
"N  c #74BB09",
"B  c #7ABE0A",
"V  c #7DC00A",
"C  c #83B70B",
"Z  c #87B90C",
"A  c #95BD0D",
"S  c #96BF0D",
"D  c #81C00B",
"F  c #81C20B",
"G  c #86C10B",
"H  c #84C30B",
"J  c #86C40B",
"K  c #83C20B",
"L  c #88C40B",
"P  c #8AC40B",
"I  c #8BC60B",
"U  c #8CC60B",
"Y  c #8CC50B",
"T  c #8EC80C",
"R  c #98C00D",
"E  c #99C00D",
"W  c #9BC10D",
"Q  c #9CC10D",
"!  c #94C90C",
"~  c #95C90C",
"^  c #96C90C",
"/  c #97CA0C",
"(  c #96CA0D",
")  c #96CA0C",
"_  c #98CB0C",
"`  c #98CB0D",
"'  c #99CB0D",
"]  c #99CC0D",
"[  c #9BCD0D",
"{  c #9DCD0D",
"}  c #9CCE0D",
"|  c #9FCE0D",
" . c #9ECD0D",
".. c #A0CE0D",
"X. c #A7CF0E",
"o. c #A5D00D",
"O. c #A5D10D",
"+. c #A6D00D",
"@. c #A7D00E",
"#. c #A7D00E",
"$. c #A8D00E",
"%. c #A8D10E",
"&. c #A9D20E",
"*. c #AAD20E",
"=. c #ABD20E",
"-. c #AAD30E",
";. c #ABD30E",
":. c #ADD20E",
">. c #ADD30E",
",. c #ACD40E",
"<. c #ADD40E",
"1. c #ADD50E",
"2. c #AED40E",
"3. c #AED50E",
"4. c #AFD50E",
"5. c #AED60E",
"6. c #AFD60E",
"7. c #AAD20E",
"8. c #B0D40E",
"9. c #B0D50E",
"0. c #B0D70E",
"q. c #B3D70E",
"w. c #B2D80E",
/* pixels */
"                                                                                                                                ",
"                                                                                                                                ",
"                                                                                                                                ",
"                                                                                                                                ",
"                                                                                                                                ",
"                                                                                                                                ",
"                                                                                                                                ",
"                                                                                                                                ",
"                                                                                                                                ",
"                                                                                                                                ",
"                                                                                                                                ",
"                                                                                                                                ",
"                        + o o o o o o o o o o o o o o o o o o o o o o o o o o o o o o o o o o o o o o X                         ",
"                        o d n b b b b b b b b b b b b b n b b n C b b b b C b b b b b b C b b b n n d o                         ",
"                        X s c x x c c H 5.5.-.1.1.1.@.M x x x M l c m l l c c c M c c c l M x M x m r o                         ",
"                        o < p u y 7 6 l ;.&.=.=.=.=.' q e u e 6 6 6 6 6 5 7 6 6 6 6 6 t 9 9 t 6 e u < o                         ",
"                        o v =.=.! q 6 l =.=.$.:.=.=._ w B =.B 6 6 6 6 6 6 6 6 6 6 6 6 N l a Z y Z -.v o                         ",
"                        o b 1.=.[ q 6 l =.$.=.=.@.=.` w B 1.V 6 6 6 6 6 6 6 6 6 6 6 6 q x N y P @.5.b o                         ",
"                        o v 1.:.[ q 6 l :.@.=.=.=.=.[ w B 1.B 7 6 6 6 6 6 6 6 6 6 6 7 l l j N f I 1.b o                         ",
"                        o b 1.:.[ q 6 l :.=.=.=.=.=.[ w B :.B 6 6 6 6 6 6 6 6 6 6 6 6 h l l l x ! 5.v o                         ",
"                        o v 1.=.' q 6 l :.=.=.@.=.=.! w B 8.V 0 6 6 6 6 6 6 6 6 6 6 6 e l m a V | 1.v o                         ",
"                        o b 1.=.' q 6 l 1.=.=.=.=.=.! w B 1.V 6 6 6 6 6 6 6 6 6 6 6 6 N l a Z y H w.b o                         ",
"                        o b 1.=.' w 6 l -.=.=.@.=.=.! w B :.B 6 6 6 6 6 6 6 6 6 6 6 6 q c N y H @.1.b o                         ",
"                        o v 1.=.' q 6 l 1.=.=.-.=.=.' w B q.V 7 6 6 6 6 6 6 6 6 6 6 6 x l j N f I 1.b o                         ",
"                        o v 1.=.' q 6 l :.=.=.@.-.=.` w B :.B 6 6 6 6 6 6 6 6 6 6 6 6 h x x x z ! 1.v o                         ",
"                        o b 1.:.' w 6 l =.=.=.=.=.=.` w B q.B 6 6 6 6 6 6 6 6 6 6 6 6 t x m a V ..1.b o                         ",
"                        o v 1.:.[ w 6 l 1.=.=.=.=.=.` w B :.V 0 6 6 6 6 6 6 6 6 6 6 6 M l f Z y H 1.b o                         ",
"                        o b 1.:.` 9 6 l =.=.=.:.=.-.` w B 1.V 6 6 6 6 6 6 6 6 6 6 6 6 0 c N y I @.1.b o                         ",
"                        o b q.q.[ q 6 l q.1.1.:.-.1.{ w V q.D 6 6 6 6 6 6 6 6 6 6 6 6 M x j N h T w.b o                         ",
"                        o , d 4 4 = $ : d 4 d d d d 4 = 2 d 2 $ * * * * * $ * * $ $ * 3 : - 4 = 2 d , o                         ",
"                        X X X X X o X X X X X X X X X X X X X o o X X X X X o X X X o X X X X X X X X X                         ",
"                            X o # # # @ O O # # # # # # O @ # # O O O O O O O O O O # O @ # # # o X                             ",
"                            . % A R R g ; 9 Z R R R R R r g Q Z 9 ; 5 5 5 5 5 5 5 9 C r g R R A % X                             ",
"                            . > =.:.1.x 6 q ! 1.-.-.-.-.p z 1._ q 6 6 6 6 6 6 6 6 0 i M x z -.@.> .                             ",
"                            . > @.=.:.x 6 q ! :.=.=.=.@.p k 1./ q 6 6 6 6 6 6 6 6 0 j z x N @.@.> .                             ",
"                            . > @.=.:.l 6 q ! =.@.=.=.@.u k :./ q 6 6 6 6 6 6 6 6 q M h l I =.@.> .                             ",
"                            . > @.=.1.x 6 q ~ =.-.=.@.@.u z 1./ q 6 6 6 6 6 6 6 6 6 w N l h @.=.> .                             ",
"                            . > @.@.:.z 6 q ~ :.=.=.-.&.p k 1./ q 6 6 6 6 6 6 6 6 q H a z { -.@.> .                             ",
"                            . > @.=.1.x 6 q ! -.=.=.-.@.u z 1./ q 6 6 6 6 6 6 6 6 0 y M l z @.@.> .                             ",
"                            . > @.=.=.x 6 q ! -.=.-.-.@.u k 1./ q 6 6 6 6 6 6 6 6 0 j k z N =.@.> .                             ",
"                            . > @.=.:.x 6 q ~ =.=.=.=.&.p z :./ q 6 6 6 6 6 6 6 6 q M h l I =.@.> .                             ",
"                            . > @.@.:.z 6 q ! =.-.-.@.@.y z 1./ q 6 6 6 6 6 6 6 6 6 q B l h @.@.> .                             ",
"                            . > @.=.-.x 6 q ! :.=.@.-.@.i z 1./ q 6 6 6 6 6 6 6 6 q D a k { =.@.> .                             ",
"                            . > @.=.1.x 6 q ! =.=.=.-.=.p z 1./ q 6 6 6 6 6 6 6 6 6 y m k k @.@.> .                             ",
"                            . > @.=.=.x 6 q ~ =.=.@.-.@.p k :./ q 6 6 6 6 6 6 6 6 0 k l l N =.X.> .                             ",
"                            . > @.=.:.x 6 q ~ =.=.=.-.@.u k 1._ q 6 6 6 6 6 6 6 6 q m j l Y =.X.> .                             ",
"                            . > @.=.:.x 6 q ~ :.@.-.=.@.u k 1._ q 6 6 6 6 6 6 6 6 6 w N l h =.X.> .                             ",
"                            . > @.@.:.l 6 q ! =.=.=.=.=.p k :./ q 6 6 6 6 6 6 6 6 q H a l  .=.X.> .                             ",
"                            . > @.=.=.z 6 q ! :.=.=.=.@.p k 1.' q 6 6 6 6 6 6 6 6 6 u m l k @.@.> .                             ",
"                            . > @.=.=.x 6 q ! =.=.=.=.@.p k 1.! q 6 6 6 6 6 6 6 6 7 k l l N =.@.> .                             ",
"                            . > @.=.=.x 6 q ~ =.=.=.=.@.p z 1.` q 6 6 6 6 6 6 6 6 q N h x Y =.@.> .                             ",
"                            . & X.=.:.x 6 q ~ =.@.=.-.@.y k 1.` q 6 6 6 6 6 6 6 6 6 7 D l p =.X.& .                             ",
"                                                                                                                                ",
"                                                                                                                                ",
"                                                                                                                                ",
"                                                                                                                                ",
"                                                                                                                                ",
"                                                                                                                                ",
"                                                                                                                                ",
"                                                                                                                                ",
"                                                                                                                                ",
"                                                                                                                                ",
"                                                                                                                                ",
"                                                                                                                                "
};
