/* XPM */
static char *a5fbda0e96b44e9cd742bc9aca103849zpnXOT6HIV1dkZux[] = {
/* columns rows colors chars-per-pixel */
"64 64 142 2 ",
"   c #886E55",
".  c #896F56",
"X  c #8A7057",
"o  c #8B7158",
"O  c #8A7258",
"+  c #8C7259",
"@  c #8D735A",
"#  c #8C745A",
"$  c #8D755B",
"%  c #8E745B",
"&  c #8C745C",
"*  c #8D755D",
"=  c #8F755C",
"-  c #8E765C",
";  c #8F775D",
":  c #8E765E",
">  c #8F775F",
",  c #8D785D",
"<  c #8E795E",
"1  c #8F7A5F",
"2  c #90765B",
"3  c #90765D",
"4  c #91775E",
"5  c #92785D",
"6  c #90785E",
"7  c #91795F",
"8  c #93795E",
"9  c #92785F",
"0  c #947A5F",
"q  c #907860",
"w  c #917961",
"e  c #937960",
"r  c #907B60",
"t  c #927A60",
"y  c #937B61",
"u  c #927A62",
"i  c #937B63",
"p  c #957B60",
"a  c #947A61",
"s  c #957B62",
"d  c #917C61",
"f  c #927D62",
"g  c #937E63",
"h  c #967C61",
"j  c #977E60",
"k  c #947C62",
"l  c #957D63",
"z  c #977D62",
"x  c #967C63",
"c  c #947C64",
"v  c #957D65",
"b  c #977D64",
"n  c #947F64",
"m  c #967E64",
"M  c #977F65",
"N  c #967E66",
"B  c #977F67",
"V  c #987F61",
"C  c #987E63",
"Z  c #997F64",
"A  c #987E65",
"S  c #997F66",
"D  c #958065",
"F  c #968166",
"G  c #978267",
"H  c #998062",
"J  c #9A8163",
"K  c #9A8065",
"L  c #9B8264",
"P  c #988066",
"I  c #998167",
"U  c #9B8166",
"Y  c #9A8067",
"T  c #9C8365",
"R  c #9C8267",
"E  c #9D8466",
"W  c #9E8567",
"Q  c #988068",
"!  c #998169",
"~  c #9B8168",
"^  c #988368",
"/  c #9A8268",
"(  c #9B8369",
")  c #9A826A",
"_  c #9B836B",
"`  c #9D8368",
"'  c #9C8269",
"]  c #9D836A",
"[  c #998469",
"{  c #9A856A",
"}  c #9B866B",
"|  c #9E8469",
" . c #9F8668",
".. c #9C846A",
"X. c #9D856B",
"o. c #9E846B",
"O. c #9C846C",
"+. c #9D856D",
"@. c #9F856C",
"#. c #9C876C",
"$. c #9E866C",
"%. c #9F876D",
"&. c #9E866E",
"*. c #9F876F",
"=. c #9D886D",
"-. c #9E896E",
";. c #9F8A6F",
":. c #A08769",
">. c #A0866B",
",. c #A1876C",
"<. c #A0866D",
"1. c #A1876E",
"2. c #A1886A",
"3. c #A2896B",
"4. c #A2886D",
"5. c #A38A6C",
"6. c #A0886E",
"7. c #A1896F",
"8. c #A2886F",
"9. c #A08870",
"0. c #A18971",
"q. c #A38970",
"w. c #A08B70",
"e. c #A28A70",
"r. c #A38B71",
"t. c #A28A72",
"y. c #A38B73",
"u. c #A48A71",
"i. c #A58B72",
"p. c #A18C71",
"a. c #A28D72",
"s. c #A38E73",
"d. c #A48C72",
"f. c #A58D73",
"g. c #A68C73",
"h. c #A48C74",
"j. c #A58D75",
"k. c #A78D74",
"l. c #A68E76",
"z. c #A78F77",
"x. c #A88E75",
"c. c #A99179",
/* pixels */
"~ ' o.@.@.' ~ S S Y S S S S x b B N B +.&.) ) +.0.0.0.h.l.l.j.h.h.0.0.d.d.0.7.Y o.=.7.7.p.8.d.d.z.c.c.z.j.l.l.h.h.&.+.&.0.&.&.) ",
"S Y ~ ~ S S x s b x s e 9 e 9 s N v N ) +.) B ) ) N v i N ) &.0.@.O.[ @.o.[ ^ Y o.o.o.=.7.7.p.5.z.z.z.z.h.h.j.0.h.h.h.h.j.h.+.! ",
"S S S b x s e 4 s e 4 = % = 4 9 v i v ) +.) ) ) i i > > i v B ) b ~ [ [ Y Y ^ o.E [ o.o.o.o.7.7.0.z.0.0.0.h.0.&.&.&.&.&.&.&.) N ",
"b S b x s e s s s e 4 @ % = 4 s N v v B B ) B ) v N N N ) B N v b D ~ ~ [ E ^ o.^ [ $.o.o.[ [ o.@.9.9.@.+.&.+.) N ! ! ! O.) ! N ",
"x s s s e s s s x e 4 4 = 4 e s ) N v i N v N ) N ) +.&.+.B v i 0 9 9 D [ o.Y f Y [ 7.7.$.[ D x ! O.) ! ! ! ! N ) N N ! ! N ! ! ",
"e s e e e e s s s s e 9 9 e s s B v i i i v N ! +.) +.) N N v v f 9 1 x o.o.^ x Y ^ $.=.o.Y x 0 g N ! N N N N v ) ) ! N N v v v ",
"x x x s s s s s s s x b b s s s N v g N ! N N ) ) ) ) B B B ) ) ^ Y x D o.7.o.[ o.o.o.7.$.[ Y Y ! ) ) ) ) ) +.) O.) ) O.! ! v i ",
"S S S S S x x x x b S ~ ~ S S x N N N ) &.&.+.&.B ) &.&.&.&.&.0.[ Y x D Y [ o.7.7.7.7.7.7.=.=.7.@.&.0.&.0.h.h.0.+.&.9.h.0.&.) ! ",
"' ~ S S S Y Y Y S Y Y Y S S Y ~ ! ) ) ) &.&.&.&.&.9.&.0.&.0.h.h.7.o.o.o.o.$.=.7.7.7.7.u.5.p.=.=.h.h.&.h.0.h.&.h.j.j.j.h.0.&.) O.",
"<.@.' ' o.@.' ~ Y Y Y Y Y Y ~ ~ N N N N N ) ! ! O.) O.O.@.&.) &.o.^ ^ ^ Y ^ o.[ E [ [ o.o.^ o.Y +.&.&.0.&.&.0.0.0.9.&.&.+.+.O.O.",
"~ ~ ~ ' ' ' Y S Y S S b b S S Y ! N ! ! ) ) ! ) ! N ! N ) ) N N ^ Y H x D x x Y D D x D D x x f N N N B ) ) ) ) ! ! N N N ! ! ! ",
"S S b x S S b x b x e s s s x x ) ) ) ) ) O.) +.! ! N ) ) ) N g D Y x D x x D x Y Y x x x x D x i i N N N N N N N N v v v N N N ",
"Y S s s x b S b s e 9 9 e s s s N N ! ! ! ) ) O.) ) ! ! ) ! N i x D x D D H Y D Y Y ^ Y Y D D Y ) ) ) ) ) ) +.) ) ) ) ) ) ) ! ! ",
"~ S s e e s x S s e 9 e x S x s v v N N N ) ) ) N ! ! N N g i i x x x D b b D D D Y D Y Y Y Y Y ) ) ) +.) +.&.&.&.+.+.N N ! N ! ",
"s s 4 = 4 9 e e 4 4 4 s b S b s N N N N ! N ! N N ! ! N w w w e 0 9 9 9 f e e f x 0 f D D D f x i i i i v N ) +.) ) v i > w g N ",
"s e 4 4 4 9 9 4 % @ = e b S x e v N N v N v i v N N ! N w = w f 1 1 1 9 1 % % % % , 9 9 0 0 9 1 > > > > w v B ) +.B i * * > i N ",
"s x x s s s s e 9 9 s s b S Y ~ @.[ D D [ [ [ D { { [ D 1 , 1 1 4 e x x e s s x e q 3 3 3 3 3 o > e e 4 e e e S S S x x e 3 4 4 ",
"b b b S S b b b s s s b S S Y Y D f f D [ =.=.=.{ { { ^ D f 0 f x S x S x x x x s e 3 e 3 e 3 e i i x x x x x S <.S S S S <.S <.",
"b b S S Y Y Y S b b x S b S b Y D f f f D ^ [ [ D ^ { [ ^ D D f S S S S S S S S S x x x x x S x x i x x x x s x e e e e x x S <.",
"s x S S Y Y Y S Y Y Y ~ Y Y Y ~ o.[ D [ [ ^ [ D ^ ^ { $.^ ^ D f S <.S S S <.<.1.S <.<.S <.S S S >.>.O.' S S x x s e e s x x S S ",
"x x S S Y Y S S ' ' ' ' o.' o.o.o.[ o.[ =.=.7.7.$.$.$.o.o.o.[ [ S S S S S <.<.<.<.1.<.<.<.S <.>.' ' ' S S S x x S x x x x x S S ",
"S S S S S S S S b S S b S S S S x x D Y ' o.[ o.o.^ ^ Y ^ Y Y D <.S x x S S S S S S S S <.S <.<.<.S S S ' S S x S S x x x S S S ",
"~ S S s x x b b s e s 9 e 9 4 9 1 9 0 f e f 9 9 x f f 0 x D x x S x x x x S x s S S S <.S S <.S i.u.i.i.i.i.i.i.<.<.<.S ' S <.<.",
"S S x e 9 9 s s b b s s e 9 4 4 # % 1 9 9 0 9 f 9 1 9 x x D D x x e e e x S x s S S <.S <.S S <.S S x x S ' S S S x x e e 3 e 3 ",
"s s e e 9 4 @ @ = s s s s b s % O X 9 9 e f 9 9 1 1 % % 1 9 9 9 x x x s e e 3 4 e e e e e e x <.S S S x x x x x S s 3 3 3 4 4 3 ",
"  X @ % = = 4 = @ 4 x s s s s 9 1 1 0 0 x f f 9 e 9 1 9 e s f x s s e e e 3 3 3 3 q e e e e x <.x x x x e e e 4 3 3 o o o @ o   ",
"X     @ o @ X @   % 9 4 @ @ % 4 = = 1 = 9 9 e e 4 1 9 9 4 e 4 4 3 3 3 3 3 3 3 o 2 3 e s s x S S x S S x x s e e 3 3 o 3 3 3 o   ",
"@ @ @ o o o     @ % % @ o   X o @ o # % = 9 e e @ % % % = 4 % @ o 3 3 4 e e 3 3 3 e e x s s x x S S S x x x 4 3 3 3 3 3 4 3 3 o ",
"X o X @ @ % 4 = e 4 @ = 4 % @ o = % % % = e e x % % 2 4 e e 4 4 3 3 e e e x e e 3 4 e x s s e x s e e e e 4 3 o 3 3 3 3 3 o @ @ ",
"o @ @ @ % 4 9 e e @ @ = e e 4 4 9 = = % % = = = % 2 % 4 e s s s e e e x x x x x e C x x x x x x x x x x x x e 3 4 e 3 e 3 3 3 4 ",
"e 9 4 4 4 4 4 9 4 % @ 4 s 9 4 9 9 9 = = % % % % 4 4 % 4 4 9 e 4 e x s x x x x x x S S S S <.' S <.S S S S <.S S x x x x e e s x ",
"s e e e 9 s s x s 4 s x s 9 9 s 9 9 9 9 9 9 9 9 s 4 4 4 4 s e e s s C e C s x C e C x C S S S S S S x x S <.S S x x x x x x x x ",
"x s e e x S S S x S S S S <.S <.<.<.<.<.<.i.u.u.7.o.' Y Y Y Y S S :.:.:.S :.:.:.2.2.4.:.:.:.:.Z :.S S C S S S S x s % + % 4 S S ",
"s x x x x x S x S ' S S S ' S <.S S ' ' ' <.<.<.<.<.' Y Y Y x 0 :.S :.:.:.:.:.:.:.:.:.:.:.Z L V >.S >.S S 1.1.S S s s s s S S S ",
"e e x x x x x e S x x x S S S x S S S S S ' ' ' ' ' S S S C x 0 C V V V V V V V 3.2.:.:.:.:.:.:.S S S 1.1.1.8.S S S S S S S S S ",
"e e e e e e e e e x e x x x x S S i S S S S S S S x s 9 e s x 0 C 0 V V V V V V V 0 0 V V L V V S S S 1.1.1.1.S S 1.S S 1.S S S ",
"3 3 3 3 3 3 3 4 x s x x x S S S s s s s x S S S s s 4 = % % 9 9 >.:.:.:.:.:.V :.Z V V V :.V :.0 S S S i.8.1.1.S 1.1.S S S S 1.S ",
"4 3 3 @ 3 4 e e x x x s x x x x 4 4 4 4 s s s s S C e 4 @ o @ % :.:.V Z V :.V V 2.2.:.:.V :.0 C S S S S 1.S 1.1.S S S x S S S S ",
"e e 4 e e e x x x S x x x x x s s s s s C s i s S S S s 4 4 4 4 C C V C C C C 0 Z 0 0 0 0 0 8 2 S S S C S S S S S S S s S S S S ",
"e e e x S S x S ' S ' S S S <.<.<.>.' ' S S S b b S ~ S S s s s :.S S V S :.S S Z :.S Z Z :.S C S S x s s x S S S S S S S S 1.1.",
"x x x x S S S <.S S ' S <.S S <.' S S ' ' S x S b x b S Y S S x C :.S V S S S C C C Z S S :.S >.' <.<.O.' ' ' ' S S S 1.8.1.1.1.",
"x x S S S S <.S S S <.<.<.<.S <.<.' ' ' <.' S S x x x b b b x s S S S C C S Z 0 8 8 0 0 s S C C e x x S ' ' <.<.S 1.S 1.8.1.8.S ",
"S S S S S <.S S S <.>.S S S S S S S S <.<.<.' ' o.o.~ ' @.<.o.o.1.q.q.>.S 1.S S S S S S S S S S S <.<.i.8.<.<.<.i.8.1.8.8.8.1.S ",
"S S S <.<.S S S x x x i x x x x S x S ' ' ' ' ' @.o.o.o.<.7.u.u.i.q.q.q.1.i.S 1.q.4.q.q.8.i.x.i.g.g.x.g.i.i.i.i.k.i.i.1.i.1.1.1.",
"S S S S S x x e e s e 3 3 4 4 4 x s x S ' ' ' ' b x 9 9 s S o.o.>.S S 1.S 1.1.S >.>.>.1.1.1.1.i.i.i.g.i.u.u.g.g.i.i.1.i.1.i.S S ",
"S S S x x e e e s e e 3 2 4 4 4 S x x S ' ' ' ' x s 9 9 9 x Y Y S S S S S S S S S S 1.S 1.S 1.1.u.u.8.i.<.<.<.8.>.1.S <.S S 1.S ",
"x x x s s e e e i C e 3 3 4 4 s S x s S S S S ' ~ Y Y Y Y Y Y x S s s S S 1.S S >.1.1.1.1.1.S S <.<.<.<.' S S S S S S S S S S S ",
"e e e e e e x x x s 4 3 3 4 s s S s s s x x S ' R Y Y ' Y Y 0 9 S 8 s S S S S S S S S 1.S S S S s s x S S S x x x x x S S S S x ",
"s x e e x s e e x e e s e x e s C x D x D D Y Y f D Y Y Y x D D 0 9 9 Y @.7.o.D [ o.=.@.o.^ Y D S D D [ [ [ ~ D [ [ [ D f d f f ",
"x S x S x x x x x S S S S x S x D D x Y Y Y ^ Y Y Y o.[ [ Y Y o.[ D D Y o.=.o.~ o.o.7.7.=.o.o.o.~ ! [ [ [ { { =.[ [ [ [ Y D D [ ",
"S S S S x S S S S S S S S S S S Y D Y ^ ^ o.o.7.@.2.=.7.=.7.=.7.7.o.^ Y ^ o.7.7.o.=.5.z.5.p.7.7.;.=.=.=.=.;.5.;.=.=.a.a.=.=.=.[ ",
"<.<.S <.<.S <.S S S S S S S S S Y D Y Y E o.[ =.=.$.$.$.$.o.7.7.$.o.^ Y D Y =.5.o.$.7.0.7.7.=.7.p.;.0.p.a.a.s.s.a.a.a.=.=.=.=.[ ",
"<.' <.<.S <.<.S S S S S S S S S H D Y D Y Y Y Y D Y x Y D Y Y Y ^ Y Y Y D D Y o.D Y [ [ ^ Y Y D [ o.^ ^ o.o.o.$.=.=.[ Y ~ D [ Y ",
"S S S S S S S x S x S x x S x S Y Y Y Y Y ^ ^ ^ Y D D Y D Y D x Y D Y D x x x D x x D x f 0 9 0 x x x x x D Y D Y b x f x x D x ",
"x x x x x x s x x s e e e e x s ^ ^ Y ^ ^ o.o.o.Y Y Y Y ^ Y D f D D D x Y D D b x S H D x f x x D x D D D D H Y D x x x Y D D x ",
"S S S S x S x S s x s x x s s x x x D Y D Y [ o.D x D D Y H x 9 x x f x D Y Y D Y [ o.' ^ Y Y ^ Y [ o.o.o.o.o.[ o.o.E [ o.o.Y D ",
"S x 3 2 3 e e s e 4 3 e x S x x Y H x x D Y Y [ Y E ^ Y x 9 9 f 0 x f x f x D Y x f D b Y Y Y ^ Y D x D D Y [ o.[ o.~ Y D D x x ",
"x e 3 3 3 e e e e 4 e e x x x x D D x f x D x f Y ^ Y D 9 % 1 9 f 0 9 9 , 2 % 9 0 9 x f x f x D 0 9 9 9 f x Y Y Y D f = 1 9 Y [ ",
"s e e e e e e s e 3 3 e x S S x D x x D Y Y D x [ [ Y f 1 1 1 9 , % , 1 % 1 , , % 1 2 , 1 , , % % , % 9 9 s S b o.Y 0 % @ % 9 C ",
"S x x x x x x x e e e s S S S x Y D Y Y ^ o.^ E o.o.o.D x 9 9 f 9 1 9 0 f x x 0 9 2 , , % # % % 9 9 9 9 9 x x S o.Y Y x s s s x ",
"x S S S ' S S x s x x S S S S S Y D D Y Y [ o.o.Y o.[ o.Y b f e ^ Y D Y Y Y x 0 x f x x 0 0 9 9 x x x x x x x x s x x S Y ' ' ' ",
"i x S S S S S <.x S S S S ' <.S Y Y D x D Y ^ Y Y ^ o.[ E Y x f ^ Y Y ^ o.[ [ ^ o.[ ^ Y ^ Y ^ ^ Y Y Y Y S x x x x s s s x b Y o.",
"e x S S S S S <.S ' S S ' S S S ^ Y D Y Y o.o.[ E ^ [ o.[ ^ D D Y H D Y o.7.7.o.o.$.o.o.[ @.o.o.o.Y Y Y Y b x x S x e 9 9 s x Y ",
"x S S S S S S S S <.<.<.' <.S <.o.[ o.=.9.5.7.7.=.$.o.o.o.o.o.o.o.[ Y Y [ $.o.[ [ o.[ =.{ o.[ o.o.o.o.~ Y Y S x e s x x x Y Y Y "
};
