/* XPM */
static char *_d85012e465b433df81d191de341cc01ccPbmFWYMtev4jz6[] = {
/* columns rows colors chars-per-pixel */
"64 64 210 2 ",
"   c None",
".  c #070000",
"X  c #0B0204",
"o  c #0D0A0A",
"O  c #0E0708",
"+  c #140C0C",
"@  c #1A0E0D",
"#  c #0B160C",
"$  c #1C110F",
"%  c #14100C",
"&  c #0E0B11",
"*  c #0F0F1B",
"=  c #100F19",
"-  c #0E1C11",
";  c #1D1514",
":  c #11111D",
">  c #1A1716",
",  c #2C1D19",
"<  c #251914",
"1  c #311F1C",
"2  c #22100D",
"3  c #0D2312",
"4  c #0C2A17",
"5  c #1A2617",
"6  c #0C361A",
"7  c #0C381A",
"8  c #17381F",
"9  c #34211E",
"0  c #3B221A",
"q  c #252C1F",
"w  c #121422",
"e  c #171A2C",
"r  c #161E35",
"t  c #1A1E32",
"y  c #0F192A",
"u  c #251C22",
"i  c #17213A",
"p  c #172539",
"a  c #133936",
"s  c #15332A",
"d  c #262121",
"f  c #2E2929",
"g  c #2B2521",
"h  c #3A2B24",
"j  c #372825",
"k  c #3B362C",
"l  c #3B3836",
"z  c #253126",
"x  c #532E1D",
"c  c #472619",
"v  c #472D26",
"b  c #43342E",
"n  c #4C322A",
"m  c #4B3829",
"M  c #52352D",
"N  c #593C2D",
"B  c #4A3C36",
"V  c #5B3C32",
"C  c #563932",
"Z  c #693C27",
"A  c #613E36",
"S  c #713F28",
"D  c #0B431E",
"F  c #0C4D23",
"G  c #0D4521",
"H  c #184626",
"J  c #0C5B29",
"K  c #0D5627",
"L  c #115035",
"P  c #125B31",
"I  c #2B4C33",
"U  c #0C632C",
"Y  c #0D6B2E",
"T  c #0C7433",
"R  c #0C7C36",
"E  c #0D7F38",
"W  c #156C35",
"Q  c #25633B",
"!  c #5C4432",
"~  c #584439",
"^  c #404834",
"/  c #78432A",
"(  c #664239",
")  c #68433A",
"_  c #664937",
"`  c #6B513B",
"'  c #675918",
"]  c #1A2644",
"[  c #1B2A4A",
"{  c #192644",
"}  c #1C2E53",
"|  c #1C2F59",
" . c #1E325B",
".. c #1E3056",
"X. c #353944",
"o. c #28344E",
"O. c #1F3560",
"+. c #203661",
"@. c #233964",
"#. c #233B6B",
"$. c #233F73",
"%. c #266F40",
"&. c #1B5F72",
"*. c #26447B",
"=. c #254176",
"-. c #2B464E",
";. c #4A4545",
":. c #4C4847",
">. c #554C49",
",. c #5A5857",
"<. c #505551",
"1. c #6C584A",
"2. c #735B4B",
"3. c #615D5E",
"4. c #785F50",
"5. c #786256",
"6. c #60625F",
"7. c #5D7971",
"8. c #696766",
"9. c #726F6F",
"0. c #797576",
"q. c #7A7777",
"w. c #90760A",
"e. c #854A2E",
"r. c #8B4E31",
"t. c #916E4E",
"y. c #856B5C",
"u. c #987553",
"i. c #876950",
"p. c #8E7362",
"a. c #967B68",
"s. c #817F7E",
"d. c #0C8539",
"f. c #0C8B3C",
"g. c #0C8037",
"h. c #0B933F",
"j. c #0C9C42",
"k. c #0C9641",
"l. c #0CA446",
"z. c #0DAD4A",
"x. c #0CA847",
"c. c #0CB24C",
"v. c #2DBA63",
"b. c #419C63",
"n. c #6E8174",
"m. c #4AC578",
"M. c #AA8E08",
"N. c #D5B206",
"B. c #E7C102",
"V. c #FFD902",
"C. c #AB845C",
"Z. c #B0885F",
"A. c #9D816E",
"S. c #94897B",
"D. c #A58873",
"F. c #B2927C",
"G. c #B88E64",
"H. c #C79B6C",
"J. c #294A85",
"K. c #2A4D8B",
"L. c #284781",
"P. c #2B508F",
"I. c #2C5293",
"U. c #2A4E91",
"Y. c #3F8FA3",
"T. c #7D949B",
"R. c #4A8FA1",
"E. c #75CE97",
"W. c #5CCB86",
"Q. c #8D8B8B",
"!. c #878484",
"~. c #968E89",
"^. c #999696",
"/. c #9D928C",
"(. c #B79A85",
"). c #A09E9E",
"_. c #96ACAF",
"`. c #ACAAAA",
"'. c #A4A5A3",
"]. c #B1AEAE",
"[. c #B7B6B6",
"{. c #86AA93",
"}. c #C19D86",
"|. c #C8A58C",
" X c #D2AE93",
".X c #DBB599",
"XX c #D8B397",
"oX c #CFAB90",
"OX c #E2BB9E",
"+X c #C0BFBF",
"@X c #E7BFA1",
"#X c #ECC3A4",
"$X c #F5CAAA",
"%X c #F9CEAD",
"&X c #F1C7A8",
"*X c #FDD0AF",
"=X c #FED2B1",
"-X c #C3BFC1",
";X c #B5E6C8",
":X c #C5C4C4",
">X c #CCCBCB",
",X c #C9C7C8",
"<X c #D8D7D8",
"1X c #D0CFCE",
"2X c #CEEFDB",
"3X c gray89",
"4X c #EAE9EA",
"5X c #F4F4F4",
"6X c #FEFEFE",
"7X c #F0EFEF",
/* pixels */
"                                                                                                                                ",
"                                                                                                                                ",
"                                      O - 3 #                                                                                   ",
"                                  O 7 T k.f.I 0.f                                                                               ",
"                                % Y x.c.c.R ).;X{.f                                                                             ",
"                              # T c.c.c.c.W >XW.W.`.>               -                                                           ",
"                            O J c.c.c.z.c.W ,X2Xv.;X8.      - G Y d.f.7                                                         ",
"                            6 x.c.c.c.c.c.R Q.6XE.m.b.# 3 K f.z.z.c.x.4                                                         ",
"                          o R c.z.c.c.c.c.x.Q :X2XE.7.H f.c.c.f.R l.P                                                           ",
"                          4 x.c.c.c.c.c.c.c.l.W n.6.U x.c.j.U T z.E -                                                           ",
"                        O J c.c.c.c.c.c.c.c.c.x.G J z.c.d.F d.c.d.3                                                             ",
"                        o f.c.c.z.c.c.c.c.c.z.J K Y D F 5 U c.T 3                                                               ",
"                        3 l.c.z.c.c.c.c.c.c.T K Y @ C 1.A.I F -                                                                 ",
"                        7 z.c.z.c.z.c.c.c.h.D h.D i..X(.(.a.+         h ~ b                                                     ",
"                        D c.c.c.c.c.z.c.c.D 7 I >.oX/.<XT.8.~     B A..X#XOXA.g                                                 ",
"                        U c.c.c.c.c.c.c.T 1.|..X&X#X/.3XY.-.y.f 2.@X=X=X=X=X=Xa.+                                               ",
"                      X U c.c.c.c.c.c.l.8 |.=X=X*X%XS.<XR.,.1.}.&X=X*X=X=X=X=XoX<                                               ",
"                    o D T c.c.z.c.z.c.Y < D.=X*X=X=X|.]._.&.:.%X=X*X=X*X=X=X=XD.@                                               ",
"                    D x.x.c.c.c.c.c.j.5 S ( XX=X*X*X%X(.).7.Q.=X=X=X*X=X=X=XXXb                                                 ",
"                  o R c.c.c.c.c.c.c.Y c r./ _ F.oX#X*X%X(.|.%X=X*X&X$X%X@X(.b                                                   ",
"                  o T c.c.c.c.c.h.W z c Z / e.Z Z 1.@XOXk j 4.D.a.b B ~ b <                                                     ",
"                    7 l.c.c.c.d.^ F.XXoXa.Z / r.e.n XXD.X . . X X X X X X                                                       ",
"                    o D h.c.z.H H.=X|.a.|. X4.N N p.*Xa.X X X X X X X X O                                                       ",
"                        3 J T z .X=X#XA.~ (.%X.X.X*X=X.Xj . . . X X X O                                                         ",
"                              + p.=X=X%XOXD.*X=X=X*X%X=XXX1.j , 9 ~ A.>.                                                        ",
"                                u p.#X=X=X$X%X=X=X=X=X=X=X*X#XOX@X&X.XB                                                         ",
"                                    B 5.y.4.1..X=X=X=X*X=X*X=X=X=X#X~                                                           ",
"                                      . c Z x ! OX=X%X=X*X=X*X=X=X X,                                                           ",
"                                      < S r.r.x ~ #X=X=X=X=X=X=X=Xy.O                                                           ",
"                                      0 / Z S x O 2.&X=X=X=X=X=XF.,                                                             ",
"                                      @ < 2 2 @   + p.&X$X*X=X#Xb                                                               ",
"                                          - 4 6 7 7 8 l >.5.5.1.z #           ;.!.].`.;.                                        ",
"                                o 3 D U R h.j.l.x.z.z.g.a  ...y G R F     k Q.`.5X6X6Xs.>.f                                     ",
"                      ; :.;.O 6 R j.z.c.c.c.c.c.c.c.c.c.j.L #.K. .a d.T 3 !.).8.,X5X[.8.4X8.                                    ",
"              l ,.8.8.,.:X3X~.I h.c.c.z.c.c.c.c.c.c.c.c.c.x.L =.I.*.[ g.f.8 !.,X^.8.9.3X4X3.l                                   ",
"          <.Q.[.4X6X6X4X4X6X6X`.H l.c.c.c.c.c.c.c.c.c.c.c.c.x.L =.I.J.a 6 r X.-X6X`.0.[.q.].^.                                  ",
"      > !.4X'.!.3X6X6X6X6X6X6X6Xq.Y c.c.c.x.l.j.h.h.l.l.c.c.c.j.a J.=.' w.X.$.o.,X4X^ Q.<X3X3.g                                 ",
"      q.5X6X6X:Xq.>X6X6X6X6X6X6X<XI f.R J G 6 4 # D J J j.c.c.f.5 o.^ B.V.M.+.$.X.s.0.s.^.s.].:.                                ",
"    ; ^.5X6X6X,X`.>X[.6X6X6X6X[.4X<.#             6 T h.z.c.R s #.[ z M.N.B.k I.| 0.5X9.^.,X!.                                  ",
"    + Q.6X6X6X6X6X0.^.6X6X6X6X^.`.>.              o p a J U p *.I.#.i ' w.M.g J.J.o.1X>X;.l                                     ",
"    > ].,X6X6X6X6X4X6X6X6X6X6X!.d                 o +.K.#.} L.I.I.U.} ] l p i P.I.+.>.8.                                        ",
"      :.'.6X6X6X6X6X6X6X5X6X6X8.                    ] U.I.I.I.I.I.I.K.+.|  .L.I.I.J.* X w r ] [ i w                             ",
"      X ^.5X<X6X6X6X+X!.,X6X,Xf                     ] I.I.I.I.I.I.I.I.I.I.I.I.I.I.U.r [ L.K.I.I.I.L.r                           ",
"        B q.!.6X6X<X8.>.1X:X;.                    = *.I.I.I.I.I.I.I.I.I.I.I.I.I.I.I.{ +.I.I.I.I.I.I.*.=                         ",
"            d ~.<X>X^.d f d                       r I.I.P.I.I.I.I.I.I.I.I.I.I.I.I.I.@.*.I.I.I.I.I.I.I.i                         ",
"                f f                               [ I.I.I.I.I.I.I.I.I.I.I.I.I.U.I.I.I.I.I.I.I.I.I.I.I.O.o                       ",
"                                                  [ I.I.I.I.I.I.I.I.I.I.I.I.I.I.I.I.I.I.I.I.I.I.I.I.I.=.&                       ",
"                          < _ , , 1 ;             i I.I.I.I.I.I.I.I.I.I.I.I.I.I.I.I.I.I.I.I.I.I.I.I.I.J.i & @ 1 v h , @         ",
"                          i.Z.v A ) V ,           w L.I.I.I.I.I.I.I.I.I.I.I.I.I.I.I.I.I.I.I.I.I.I.I.I.I.I.] 0 ) ) ) A n +       ",
"                        B H._ N ) ) ) j = :       +  .I.I.I.I.I.I.I.I.I.I.I.I.I.I.I.K.=.L.I.I.I.I.I.I.I.K.e M ) ) ) ) ( ,       ",
"                        ` u.v ) ) ) v i L.*.:     O O.I.I.P.I.I.I.I.I.I.I.I.I.*.+.{ e & { I.I.I.I.I.I.K.{ 9 ) ) ) ) ) ) 1       ",
"                        _ V V ) ) A u *.I.I.$.] w r K.I.I.I.I.I.I.I.I.I.*. .r :         r I.I.I.I.I.K.] 1 A ) ) ) ) A n 2       ",
"                      ! i.m ) ) ) v { I.I.I.I.I.K.J.I.I.I.I.I.I.I.I.K.] :               i I.I.I.I.=.t h A A ) ) ) M m t.1.o     ",
"                    h Z.! V ) ) ( , #.I.I.I.I.I.I.I.I.I.I.I.I.I.I.I...O               o @.I.K.*.[ u M ) ) ) ) A M 2.G.C.v       ",
"                  ; u.t.n ) ) ) A u L.I.I.I.I.I.I.I.I.I.I.I.I.I.I.*.:                   e ] t u v A ) ) ) A M _ C.Z.` <         ",
"                  ! H.N A ) ) ) V e K.I.I.I.I.I.I.I.I.I.I.I.I.I.K.r                       9 A ( ) ) ) ( N A t.u._ <             ",
"                < C.u.v ) ( ) ) M u I.I.I.I.I.I.I.I.I.I.I.I.I.I.[ O                       9 ) ) ) A M ! ` ` m <                 ",
"                v H.! V ) ) ) ) V w K.I.U.I.I.I.I.I.I.I.I.I.I...&                         + v V M V t.G.!                       ",
"                , _ v ( ) ) ) ) ( 1 i ..i  .*.I.I.I.I.I.I.J.} &                             @ $ _ G.u.m                         ",
"                  O v _ ) ) ) ) A , O       : r } #.#.#. .e o                                   , h                             ",
"                    2 N ( A ) C 1                   &                                                                           ",
"                      @ 1 j 1 @                                                                                                 ",
"                                                                                                                                ",
"                                                                                                                                "
};
