/* XPM */
static char *_29ab82ff4f74d8bff0b94d9eec2cc662twvMx2Z53tnUqs4[] = {
/* columns rows colors chars-per-pixel */
"64 64 210 2 ",
"   c None",
".  c #070000",
"X  c #0B0204",
"o  c #0D0A0A",
"O  c #0F0708",
"+  c #140C0C",
"@  c #190E0E",
"#  c #0B160C",
"$  c #1A100E",
"%  c #0E0B12",
"&  c #0F0F1B",
"*  c #100F1A",
"=  c #0E1D11",
"-  c #1D1412",
";  c #11121D",
":  c #1A1615",
">  c #2C1D19",
",  c #251814",
"<  c #321F1B",
"1  c #22100D",
"2  c #0D2312",
"3  c #0C2A17",
"4  c #1A2617",
"5  c #0C351A",
"6  c #0C391B",
"7  c #17381F",
"8  c #2A251C",
"9  c #34211E",
"0  c #3B221A",
"q  c #161829",
"w  c #161E34",
"e  c #1A1E32",
"r  c #0F192A",
"t  c #251C22",
"y  c #17213A",
"u  c #18233E",
"i  c #152834",
"p  c #133936",
"a  c #15332A",
"s  c #252121",
"d  c #2D2827",
"f  c #3A2B24",
"g  c #372825",
"h  c #3B362C",
"j  c #3B3836",
"k  c #253126",
"l  c #532E1D",
"z  c #472619",
"x  c #472D26",
"c  c #43342D",
"v  c #4C322A",
"b  c #4B3829",
"n  c #52352D",
"m  c #593C2D",
"M  c #4A3C36",
"N  c #5B3C32",
"B  c #563932",
"V  c #693C27",
"C  c #613E36",
"Z  c #713F28",
"A  c #0B431E",
"S  c #0C4D23",
"D  c #0D4521",
"F  c #184626",
"G  c #0C5B29",
"H  c #0D5627",
"J  c #115035",
"K  c #125B31",
"L  c #2B4C33",
"P  c #0C632C",
"I  c #0D6B2E",
"U  c #0C7433",
"Y  c #0C7C36",
"T  c #0D7F38",
"R  c #156C35",
"E  c #25633B",
"W  c #5C4432",
"Q  c #584439",
"!  c #404834",
"~  c #78432A",
"^  c #664239",
"/  c #68433A",
"(  c #6A4D39",
")  c #644837",
"_  c #6B523B",
"`  c #675918",
"'  c #1A2644",
"]  c #1B2A4A",
"[  c #192644",
"{  c #1C2E53",
"}  c #1C2F59",
"|  c #1E325B",
" . c #1E3056",
".. c #353944",
"X. c #28344E",
"o. c #1F3560",
"O. c #203661",
"+. c #233964",
"@. c #233B6B",
"#. c #233F73",
"$. c #266F40",
"%. c #1B5F72",
"&. c #26447B",
"*. c #254176",
"=. c #2B464E",
"-. c #4A4545",
";. c #4C4847",
":. c #554B49",
">. c #5A5857",
",. c #505551",
"<. c #6C584A",
"1. c #735B4B",
"2. c #615D5E",
"3. c #785F50",
"4. c #786256",
"5. c #60625F",
"6. c #5D7971",
"7. c #696766",
"8. c #726F6F",
"9. c #797576",
"0. c #7A7777",
"q. c #90760A",
"w. c #854A2E",
"e. c #8B4E31",
"r. c #916E4E",
"t. c #856B5C",
"y. c #987553",
"u. c #876950",
"i. c #8E7362",
"p. c #967B68",
"a. c #817E7E",
"s. c #0C8539",
"d. c #0C8B3C",
"f. c #0C8037",
"g. c #0B933F",
"h. c #0C9C42",
"j. c #0C9641",
"k. c #0CA446",
"l. c #0CA847",
"z. c #0DAD4A",
"x. c #0DA748",
"c. c #0CB24C",
"v. c #2DBA63",
"b. c #419C63",
"n. c #6E8174",
"m. c #4AC578",
"M. c #AA8E08",
"N. c #D5B206",
"B. c #E7C102",
"V. c #FFD902",
"C. c #AB845C",
"Z. c #B0885F",
"A. c #9D816E",
"S. c #8B857D",
"D. c #A58873",
"F. c #B2927C",
"G. c #B88E64",
"H. c #C79B6C",
"J. c #294A85",
"K. c #2A4D8B",
"L. c #284781",
"P. c #2B508F",
"I. c #2C5293",
"U. c #2A4E91",
"Y. c #3F8FA3",
"T. c #7D949B",
"R. c #4A8FA1",
"E. c #75CE97",
"W. c #5CCB86",
"Q. c #8D8B8B",
"!. c #878484",
"~. c #968E89",
"^. c #999696",
"/. c #9D928C",
"(. c #B79A85",
"). c #A09E9E",
"_. c #96ACAF",
"`. c #ACAAAA",
"'. c #A4A5A3",
"]. c #B1AEAE",
"[. c #B7B6B6",
"{. c #86AA93",
"}. c #C19D86",
"|. c #C8A58C",
" X c #D2AE93",
".X c #DBB599",
"XX c #D8B397",
"oX c #CFAB90",
"OX c #E2BB9E",
"+X c #C0BFBF",
"@X c #E7BFA1",
"#X c #ECC3A4",
"$X c #F5CAAA",
"%X c #F9CEAD",
"&X c #F1C7A8",
"*X c #FDD0AF",
"=X c #FED2B1",
"-X c #C3BFC1",
";X c #B5E6C8",
":X c #C5C4C4",
">X c #CCCBCB",
",X c #C9C7C8",
"<X c #D8D7D8",
"1X c #D0CFCE",
"2X c #CEEFDB",
"3X c gray89",
"4X c #EAE9EA",
"5X c #F4F4F4",
"6X c #FEFEFE",
"7X c #F0EFEF",
/* pixels */
"                                                                                                                                ",
"                                                                                                                                ",
"                                                                                  # 2 = O                                       ",
"                                                                              d 0.L d.g.U 6 O                                   ",
"                                                                            d {.;X).Y c.c.l.P o                                 ",
"                                                          =               , '.W.W.>XR c.c.c.c.U #                               ",
"                                                        5 d.s.I D =       7.;Xv.2X,XR c.c.c.c.c.G O                             ",
"                                                        5 k.z.z.z.d.H 2 = b.m.E.6XQ.Y c.c.c.c.c.z.3                             ",
"                                                          P k.Y d.z.c.d.D 6.E.2X:XE x.c.c.c.c.c.c.Y o                           ",
"                                                          = Y z.U P h.c.l.P 5.n.E k.c.c.c.c.c.c.c.l.3                           ",
"                                                            2 s.c.s.S s.c.c.P A x.c.c.c.c.c.l.c.c.c.G O                         ",
"                                                              2 Y c.P 8 S A P H G z.c.c.c.c.c.c.c.c.s.#                         ",
"                                                                = S L p.1.N $ I H U c.c.c.c.c.c.c.c.k.2                         ",
"                                                    c Q g         @ i.(.(..Xu.A g.A g.c.c.c.c.c.c.c.z.5                         ",
"                                                d A.@X#X.XD.c     Q 7.T.<X~.oX:.L 7 A l.c.c.c.c.c.c.c.A                         ",
"                                              O p.=X=X*X=X=X@X1.d t.=.Y.3X/.@X&XOX|.<.U c.c.c.c.c.c.c.G                         ",
"                                              , oX=X=X=X=X*X=X&XF.5.,.R.3XS.%X=X*X*X|.7 k.c.c.c.c.c.c.P X                       ",
"                                              $ D.=X=X=X%X=X=X=X*X;.P._.].|.=X=X*X*XD., P c.c.c.c.c.c.U A o                     ",
"                                                c XX=X=X=X=X=X=X*XS.6.^.(.%X*X=X=XXX) Z 8 h.c.c.c.c.c.k.l.A                     ",
"                                                  c F.#X%X%X#X=X=X=X|.(.*X*X#XoXD._ ~ e.z I c.c.c.c.c.c.c.Y O                   ",
"                                                    , c Q Q c p.D.3.f h OX#X<.V ~ w.w.V x k P g.c.c.c.c.c.U O                   ",
"                                                      X . . . X o . . X D. Xl w.w.~ W i.oXXXF.! s.c.c.c.k.6                     ",
"                                                      O X X X X X X X . A.*Xi.m V 3. X|.p.|.=X(.F c.c.g.A +                     ",
"                                                        O X . X X . . f .X*X*X.XXX*X(.Q A.#X=XXXk U H 2                         ",
"                                                        :.p.Q 9 8 g 1.XX=X*X=X=X=X*XD.OX=X=X=Xi.+                               ",
"                                                        M XX%XOX.X#X*X=X*X=X*X*X*X%X$X=X*X#Xi.>                                 ",
"                                                          Q &X=X*X*X=X=X=X=X=X=X.X<.3.t.4.M                                     ",
"                                                          8  X=X*X=X*X=X*X*X=XOXW l Z z .                                       ",
"                                                          O t.=X=X*X*X=X=X=X#XQ l e.e.~ ,                                       ",
"                                                            > F.%X=X=X=X=X$X1.O l Z V ~ <                                       ",
"                                                              h #X=X=X$X&Xi.o   @ 1 1 > @                                       ",
"                                        ;.`.].!.-.          = 8 1.4.4.:.j 7 6 6 5 2 =                                           ",
"                                    d :.0.6X6X5X`.Q.h     D Y D r | } p Y l.z.l.k.h.d.s.P A 2 o                                 ",
"                                    8.4X8.[.5X,X7.).!.3 U j.F O.P.@.J k.c.c.c.c.c.c.c.c.c.z.h.U 6 + -.;.:                       ",
"                                  j 2.4X3X8.7.^.,X!.a d.T [ L.I.@.K l.c.c.c.c.c.c.c.z.c.c.c.c.j.L ~.3X[.>.7.7.>.M               ",
"                                  ^.`.9.].9.].6X[...i 6 i J.I.*.J l.c.c.c.c.c.c.c.c.c.c.c.c.k.F `.6X6X4X5X5X6X4X[.Q.,.          ",
"                                s 2.3X<X~.! 4X>X..#...q.` =.I.p h.c.c.z.k.j.j.h.h.x.z.c.c.c.P 0.6X6X6X6X6X6X6X3X!.'.4X!.:       ",
"                                ;.].!.^.a.0.a...#.+.M.V.B.j } r d.c.c.h.G G A # 3 5 D G Y d.L <X6X6X6X6X6X6X>X9.,X5X6X5X0.      ",
"                                  !.,X~.8.5X9.} I.j B.N.M.k ] @.i f.c.c.h.U 5             # ,.4X[.6X6X6X6X[.1X`.,X6X6X5X^.:     ",
"                                    j ;.>X>XX.K.J.s M.q.` y @.I.&.i P G a u %               :.`.^.6X6X6X6X^.9.6X6X6X6X6XQ.o     ",
"                                        7.;.O.I.K.u d j ] { U.I.I.J.{ @.K.O.O                 s Q.6X6X6X6X5X4X6X6X6X5X>X[.:     ",
"                            q u ] ' w q X & J.I.I.&.o.} o.U.I.I.I.I.I.I.I.u                     7.6X6X5X6X6X6X6X6X6X6X'.-.      ",
"                          w L.I.I.I.K.J.[ w I.I.I.I.I.I.I.I.I.I.I.I.I.I.I.'                     d ,X6X,X!.+X6X6X6X<X5X^.O       ",
"                        ; *.I.I.I.I.I.I.O.' I.I.I.I.I.I.I.I.I.I.I.I.I.I.I.*.;                     -.-X1X,.7.<X6X6X!.0.j         ",
"                        y I.I.I.I.I.I.I.&.@.U.I.I.I.I.I.I.I.I.I.I.I.I.I.I.P.y                       s d s ^.>X<X~.s             ",
"                      O  .I.I.I.I.I.I.I.I.I.I.I.I.I.I.I.I.I.I.I.I.I.I.I.I.I.]                               d d                 ",
"                      o *.I.I.I.I.I.I.I.I.I.I.I.I.I.I.I.I.I.I.I.I.I.I.I.I.I.]                                                   ",
"        @ > f f < @ & u J.I.I.I.I.I.I.I.I.I.I.I.I.I.I.I.I.I.I.I.I.I.I.I.I.I.y             - < > 8 ) ,                           ",
"      @ x ^ / / / 0 ' I.I.I.I.I.I.I.I.I.I.I.I.I.I.I.I.I.I.I.I.I.I.I.I.I.I.J.;           < V C C x G.3.                          ",
"      > / / / / / n q K.I.I.I.I.I.I.I.&.*.K.I.I.I.I.I.I.I.I.I.I.I.I.I.I.I. .O       q & 0 <.C C B ( H.b                         ",
"      < / / / / / ^ g ' U.I.I.I.I.I.I.] % q ' O.&.I.I.I.I.I.I.I.I.I.I.I.I.| O     q &.L.e x <.C / x y._                         ",
"      1 x ^ / / / / C < ' K.I.I.I.I.I.w         ; w | L.I.I.I.I.I.I.I.I.I.K.w q ' #.I.U.&.t C / / N W )                         ",
"    O _ r.n N / / / / C f e #.I.I.I.I.w               ; ' K.I.I.I.I.I.I.I.I.J.J.I.I.I.I.I.' x / / / v u.W                       ",
"      f C.G._ b C / / / C n t ] &.I.I.+.+               +  .I.I.I.I.I.I.I.I.I.I.I.I.I.I.I.@.< C / / C W Z.0                     ",
"        , _ Z.C.) n C / / / C x t e [ q                   ; *.I.I.I.I.I.I.I.I.I.I.I.I.I.I.L.> C / / / v y.y.-                   ",
"            8 ) y.r.^ N C / C / ^ N 9                       w K.I.I.I.I.I.I.I.I.I.I.I.I.I.U.q m / / / C m H.W                   ",
"                , b _ _ N n ^ / / / <                       O ] I.I.I.I.I.I.I.I.I.I.I.I.I.P.e n / / / / x y.Z.-                 ",
"                      W G.r.W n N x +                         + { I.I.I.I.I.I.I.I.I.I.I.I.J.q N / / / / N W H.x                 ",
"                        b y.Z.) - +                             o { K.I.I.I.I.I.I.&. .y { y > / / / / / / x ) 8                 ",
"                            0 8                                   o q  .#.@.@.{ w ;       O > C / / / / / x X                   ",
"                                                                          %                   < B C / / n ,                     ",
"                                                                                                - > 0 < $                       ",
"                                                                                                                                ",
"                                                                                                                                "
};
