/* XPM */
static char *_be7b21f605e4f4cc5fac994763a0020IBBYrANEbTU2L7lt[] = {
/* columns rows colors chars-per-pixel */
"64 64 224 2 ",
"   c None",
".  c black",
"X  c #010000",
"o  c #010101",
"O  c #020000",
"+  c #000002",
"@  c #020202",
"#  c #040100",
"$  c #070000",
"%  c #010004",
"&  c #080202",
"*  c #010109",
"=  c #03050A",
"-  c #130100",
";  c #110403",
":  c #130605",
">  c #190200",
",  c #1B0200",
"<  c #1E0401",
"1  c #1B0C07",
"2  c #1D0E09",
"3  c #15100C",
"4  c #000618",
"5  c #00091F",
"6  c #1F1610",
"7  c #290001",
"8  c #360000",
"9  c #380000",
"0  c #3E0001",
"q  c #2D1305",
"w  c #291706",
"e  c #351606",
"r  c #3E1A0A",
"t  c #2B1D1A",
"y  c #27211D",
"u  c #000E23",
"i  c #01132E",
"p  c #15132D",
"a  c #001330",
"s  c #001A39",
"d  c #011E3F",
"f  c #10242A",
"g  c #212222",
"h  c #272522",
"j  c gray15",
"k  c gray18",
"l  c #2F2F2F",
"z  c #343434",
"x  c #450307",
"c  c #4A0000",
"v  c #540401",
"b  c #411B19",
"n  c #5D1513",
"m  c #620305",
"M  c #6D0104",
"N  c #740104",
"B  c #7B0205",
"V  c #711A1E",
"C  c #40220E",
"Z  c #4C2310",
"A  c #532812",
"S  c #512B16",
"D  c #5D2D16",
"F  c #4A3116",
"G  c #50321A",
"H  c #5E351D",
"J  c #69351A",
"K  c #713A1E",
"L  c #483524",
"P  c #453328",
"I  c #5C3C31",
"U  c #793E20",
"Y  c #6D6C02",
"T  c #544437",
"R  c #5A4A3C",
"E  c #694726",
"W  c #734F2A",
"Q  c #7C5430",
"!  c #002348",
"~  c #00264E",
"^  c #06374A",
"/  c #002D57",
"(  c #3F3F40",
")  c #003160",
"_  c #013B63",
"`  c #00396B",
"'  c #003E73",
"]  c #264046",
"[  c #025B6D",
"{  c #004077",
"}  c #00447F",
"|  c #444444",
" . c #4A4440",
".. c #4C4C4C",
"X. c #515151",
"o. c #555353",
"O. c #655045",
"+. c #735E4E",
"@. c #7F6755",
"#. c gray38",
"$. c #626262",
"%. c gray39",
"&. c #646464",
"*. c #666968",
"=. c #6A6A6A",
"-. c #6C6C6C",
";. c #6E6F6F",
":. c #766566",
">. c #797979",
",. c #820206",
"<. c #870307",
"1. c #900309",
"2. c #97040A",
"3. c #A0050B",
"4. c #A8040B",
"5. c #B0060E",
"6. c #B7060E",
"7. c #BE070F",
"8. c #BA0711",
"9. c #871F24",
"0. c #C30912",
"q. c #C80A13",
"w. c #CA0A13",
"e. c #CE0811",
"r. c #D00B14",
"t. c #D80B14",
"y. c #DE0B16",
"u. c #E50C16",
"i. c #EA0E19",
"p. c #ED0E19",
"a. c #EF0E19",
"s. c #F10F19",
"d. c #EE1823",
"f. c #824324",
"g. c #894927",
"h. c #8B4A27",
"j. c #855D34",
"k. c #8F6539",
"l. c #9D7140",
"z. c #846B5A",
"x. c #A57743",
"c. c #AE7D49",
"v. c #8B7460",
"b. c #937A65",
"n. c #B16466",
"m. c #C7565D",
"M. c #F0414A",
"N. c #F2686D",
"B. c #928D00",
"V. c #999300",
"C. c #A29A00",
"Z. c #D3C900",
"A. c #DACD00",
"S. c #DBD100",
"D. c #FFF300",
"F. c #BF8950",
"G. c #9E836D",
"H. c #80807F",
"J. c #998474",
"K. c #A48A77",
"L. c #AD917B",
"P. c #CC9255",
"I. c #D99B5C",
"U. c #E6A461",
"Y. c #F0AD66",
"T. c #F4B068",
"R. c #F6B169",
"E. c #F6B269",
"W. c #004B87",
"Q. c #004F8D",
"!. c #005498",
"~. c #005BA1",
"^. c #005FA9",
"/. c #0061AD",
"(. c #0063B0",
"). c #0065B3",
"_. c #0066B4",
"`. c #0066B5",
"'. c #0067B7",
"]. c #0069B9",
"[. c #1B8399",
"{. c #298FA5",
"}. c #63A0B0",
"|. c #878786",
" X c #919090",
".X c #9B9A99",
"XX c #B89981",
"oX c gray65",
"OX c #ADAEAE",
"+X c #B4B5B5",
"@X c #BEBFBE",
"#X c #C09E86",
"$X c #C3A188",
"%X c #CAA68C",
"&X c #CBAA8F",
"*X c #D0AD92",
"=X c #D3B194",
"-X c #DCB79A",
";X c #D8B1B3",
":X c #F4A0A4",
">X c #E6BEA0",
",X c #EFC5A7",
"<X c #F3CAAB",
"1X c #FACFB0",
"2X c #FDD2B1",
"3X c #FED3B3",
"4X c #FFD4B4",
"5X c #A8C1C6",
"6X c gray77",
"7X c gray80",
"8X c #D9C2C3",
"9X c #C8D4D7",
"0X c #D0D0D0",
"qX c LightGray",
"wX c #D8D7D7",
"eX c #DDDDDD",
"rX c #F9C9CB",
"tX c #FDCCCE",
"yX c gray90",
"uX c #ECECEC",
"iX c #F3F2F2",
"pX c gray98",
"aX c #FDFDFD",
"sX c white",
/* pixels */
"                                                                                                                                ",
"                                                                                                                                ",
"                                                          X > 9 9 - $ X                                                         ",
"                                                      X g o.V e.u.r.4.N < X                                                     ",
"                                                    @ ] 8XiX+XV u.a.a.a.r.N @                                                   ",
"                                                    < m.M.tXaX:.8.a.a.i.a.a.5.7 @                                               ",
"                                & N <.N c : X     X 9.N.s.:XaX|.4.a.a.a.a.a.a.q.8 X                                             ",
"                                7 y.s.a.i.e.2.c X $ 8XtXd.N.aX:.8.a.i.a.i.i.a.a.w.7 X                                           ",
"                                $ 2.s.w.r.s.s.u.4.x ;.;Xd.N.7XV u.a.a.i.a.a.i.a.a.8.&                                           ",
"                                  7 r.u.2.<.r.a.a.y.,.b n.;XO.7.s.a.a.a.i.a.a.i.a.a.1.@                                         ",
"                                  @ x r.s.4.m 5.a.a.a.5.b b 7.a.a.i.i.a.a.i.i.a.a.i.u.v X                                       ",
"                                    X 8 8.s.0.8 <.e.2.B <.v M y.a.a.a.i.a.i.a.a.a.a.a.q.&                                       ",
"                                        - <.5.b P : X X X 2.N v e.a.a.i.a.a.a.i.i.a.a.a.M X                                     ",
"                                          X ; G.@.P > m 8 M i.,.x q.a.a.a.i.i.a.a.i.i.a.0.-                                     ",
"                                            R >XK.L.+.Z m 2.u.i.1.8 8.s.i.a.i.a.a.i.a.a.i.v                                     ",
"                          3 L L y X       3 $XJ.|.qX.XK.b.I n m n P x 6.a.a.a.i.i.a.a.i.a.2.$                                   ",
"                      X T *X<X<X>XXX+.3 X +.%X] {.9XeXJ.4X<X-X&X=X<XL.r 6.a.a.a.a.i.i.a.s.r.2                                   ",
"                      h >X4X2X2X3X4X2X&XR %Xb.z [.5XwXJ.3X3X3X4X4X4X1XR > 8.a.i.i.a.a.i.a.i.m < X                               ",
"                    X z.4X3X3X2X3X2X2X3X<X<XT ] {.9X+XXX3X3X2X<X-X&X@.b A 7 8.a.a.a.a.a.i.a.8.r.B X                             ",
"                    X b.4X3X1X2X2X2X2X2X3X2XO.[ }.0XJ.<X3X3XL.I H H J f.h.A 7 6.y.i.i.a.i.a.a.i.a.B @                           ",
"                      R 1X2X3X3X2X2X2X3X3X3X&X*. XK.$X-X2X1XO.A h.g.h.h.f.D t I D ,.y.a.a.i.a.a.a.w.&                           ",
"                      X G.1X3X3X2X2X4X1X>X2X4X,X&Xb.t P ,X4XG.r g.g.h.K G G.>X<X>X+.N i.a.i.i.a.a.e.&                           ",
"                        X O.XX>X,X>X$XO.6 @.v.R 6 X X X %X3X+.D h.f.D I *X,XXX&X2X-XZ t.i.a.i.a.a.1.X                           ",
"                            $ 2 t 6 X X X X X X X X X t >X3Xz.q A S z.>X-XR v.-X1X,XA e.a.a.a.s.6.<                             ",
"                                = X X X X X X X X T @.=X2X2X,XXXL.=X1X4Xv.+.-X1X3X-X1 ,.a.a.y.1.>                               ",
"                                X X X X X X X X T <X4X3X2X2X2X4X3X3X2X2XXX<X3X3X2X@.q > <.<.0 X                                 ",
"                                  X t +.L.z.O.v.>X2X3X2X2X2X2X2X3X2X3X4X3X3X3X>X@.r J & X                                       ",
"                                    +.<X4X3X2X4X2X2X2X2X2X2X2X2X2X3X&Xv.K.G.z.P A f.J <                                         ",
"                                    X T >X4X2X2X2X2X3X2X2X2X3X4X<XK.w & > ; 1 r A A D q $                                       ",
"                                      X R -X3X4X4X3X4X4X3X<X-XG.I x v B <.1.1.1.<.,.N m c 9 - & l |.-.$ j ..&.=.$.| @           ",
"                                          y @.L.XXXXL.b.+.T f > 4.u.a.a.a.a.a.a.a.a.a.a.i.y.M ] wXaX+XoXeXiXpXuX+XoX6X|.l       ",
"                                              $ x B ; / } Q.a 5.p.i.a.i.a.i.a.a.i.a.i.a.a.0.b qXaXaXpXaXaXaXaXeX X.XpXaXeX$.@   ",
"                          X o..X+XoX|.-.l X X c t.,.) `.].' N a.p.p.p.p.p.p.p.p.i.a.i.i.a.N b.aXaXaXaXaXaXaXyXoXOXiXaXaXaX0Xz   ",
"                          g yXaXaXaX+XoX7X*.7 r.4.d /.]./.p e.a.p.p.p.p.p.p.p.p.a.a.a.a.u.x 5XaXaXaXaXaXaXaXuX X&.yXaXaXaXqXz X ",
"                        j z .XpXaXiX Xo.|.t 3.t.7 } `._.W.m a.i.p.p.p.a.a.a.a.a.a.a.a.a.t.b eXaXaXaXaXaXaX0X|.0XaXaXaXaXpXpXoX& ",
"                        ;.eX;.-.oX>. XiXOXX x v Y Y ^ /.) 4.a.a.p.r.2.1.,.,.,.,.<.1.3.6.5.b yXqXwXaXaXaXaXiX=.|.aXaXaXaXiXoX+Xh ",
"                        ( uXaX7X&.*.pXpXo.) / B.D.D.Y } s B t.a.a.0.<.1.2.3.m * X   X @ $ @ 6XoXOXaXaXaXaXaXaXpXaXaXaXaXaX0Xz $ ",
"                      y >.&.OX7X*.oXaXeXf !.^ A.D.S.B./ d / t <.e.a.s.s.i.<.p u             l  .;.aXaXaXaXaXaXaXaXaXaXiXiXaX(   ",
"                      l wXqX.X|. .&.7X|.i ^.f A.Z.C.Y ~ ) `.~.` p M 0.6.x ) ^.' X               y qXaXaXiX7XyXpXaXaXaXyX X6Xg   ",
"                      X o.6XuXuX|.&. Xo.s ).i Y V.Y ^ d Q._.`.].^.} d d Q.'.].^.u                 o.uXaXuX.X| ;.wXaXaXeXh 2     ",
"                      X .X X>.>.z eXaX|.! `.) s _ ' / / ).)._._.`.`.).).].`.`.]._ X                 o.@XuX@Xh oXeXaXyX&.X       ",
"                        X.5XeX6X&.yXaX|.! `.^.` / / ` /._._._._.`.`.`.`._._.`._.!.@                   X l : X ..=.&.l X         ",
"                            h 2 | +X7X>.s `.`.`./.).]._._._._._.).`.).`._._._._.^.u                                             ",
"                                    X X 5 /.`.`.).`.)._._._._._.`.).`.)._._._._.).i         X > C C - F E X                     ",
"            X                           X ` ' ` Q./._._._._._._.).`._._._._._._.^.u       X e f.h.h.J j.E.E                     ",
"      @ < Z D A r X                   X * ! W.~.)._._._._._._._._.)._._._._._._.!.X   X / ~ ; J h.h.g.A P.I.2                   ",
"    X e f.h.h.h.h.U e X           X a ` ~.`.).)._._._._._._._._._._._._._._._.].` & * ~ `.`.{ ; U g.h.K W E.W                   ",
"    X U h.g.h.h.h.h.f.: 4 a $ X ~ W./.`.`.).`.`._._._._._._._._._._._._._._._.~.u ) !./.`.`.`.! Z h.g.g.S c.G                   ",
"  2 q U h.g.g.g.g.h.U = !.).W.Q._.].`._._._._._._._._._._._._._._._.).)._._./.s ~ `._._.).`.].Q.1 f.h.h.K E j.X                 ",
"= c.c.S g.g.g.g.g.h.J u ^.].).]._._.`.)._._._._._._._._.).`._._._.).`.`._.Q.s ~ /._._._.`.).`./.a J h.g.g.S F.E X               ",
"X k.T.E K g.g.g.g.h.J u ^.`.).)._._._._._._._._._._._._.`.).`.`._.]./.Q.! i { /._._._._.).`.`.`.~ A h.g.h.K Q I.w               ",
"  w U.F.S g.g.g.g.h.U = ~.`.`.`._._._._._._._._._._._._.`.]._./.Q.) s s ` ~._._._._._.).`.).`.`.` r h.g.g.g.S I.x.X             ",
"  @ W E.Q J h.h.g.g.f.1 Q.].).)._._._._.`.).`.`._._._.`.~.W.) s s ) Q./._.`.`.)._._._._.).).`.].' e h.g.g.h.J j.E.G             ",
"    X c.I.G f.h.g.h.h.r ) ].`.`._._._._.).`.`.`.`.!.{ ! * X X { ).`._.`.`.).`.`._._._._.).).).`.) r h.g.g.g.f.G U.F.@           ",
"      w P.l.D h.g.g.h.D a ^.`.`._._.).`._._.~.' s * @       X 5 } `.].`.`.`.`.`.`.`._.].).).`.^.u D h.g.g.g.h.D x.Y.r           ",
"        C P.E U g.g.h.f.; Q.`.`._._._./.Q.! 4 X                 * ~ !.).`.].`.]._.`.!.W.! / W.d q f.h.h.g.g.g.U E E.W X         ",
"          L l.A g.g.g.h.r ~ `.`.`.).} i * X                       X * d ` W.} ' ) d * X     X : E g.g.g.g.g.g.g.Z W w           ",
"          X j.j.H h.g.h.U = Q.].).! * X                                 X X X X               X D h.g.g.g.g.g.h.r X             ",
"          X x.U.H U g.g.h.A u W.) @                                                             & A f.h.h.h.h.J =               ",
"            F U.F.S f.g.g.g.r X X                                                                 $ < Z D D r $                 ",
"              E Y.k.A f.f.D >                                                                           X                       ",
"              X F F X 2 : X                                                                                                     ",
"                                                                                                                                ",
"                                                                                                                                "
};
