/* XPM */
static char *_146ec76d3cc4370be4b11514c892a92I7kp4cV5Fscz0DV5[] = {
/* columns rows colors chars-per-pixel */
"64 64 218 2 ",
"   c None",
".  c #020101",
"X  c #0A0404",
"o  c #0B0907",
"O  c #02060A",
"+  c #0C0C0B",
"@  c #02090E",
"#  c #1B0506",
"$  c #120D0A",
"%  c #170907",
"&  c #1B120D",
"*  c #030C14",
"=  c #03111C",
"-  c #141313",
";  c #1B1A1A",
":  c #1A0F11",
">  c #2D080A",
",  c #260708",
"<  c #3B090B",
"1  c #320A0B",
"2  c #23140F",
"3  c #261914",
"4  c #321916",
"5  c #29221C",
"6  c #382417",
"7  c #041A2A",
"8  c #061928",
"9  c #041F33",
"0  c #131A22",
"q  c #04253D",
"w  c #072135",
"e  c #1B2435",
"r  c #1B3637",
"t  c #2C2C2C",
"y  c #242424",
"u  c #342B25",
"i  c #372728",
"p  c #343434",
"a  c #3A3A3A",
"s  c #272632",
"d  c #301A28",
"f  c #480B0D",
"g  c #550C0F",
"h  c #590E11",
"j  c #481517",
"k  c #591F16",
"l  c #680F12",
"z  c #681316",
"x  c #731115",
"c  c #7C1115",
"v  c #7A1419",
"b  c #760F12",
"n  c #432619",
"m  c #46291B",
"M  c #522F1E",
"N  c #55301F",
"B  c #43301E",
"V  c #472625",
"C  c #4C3728",
"Z  c #543221",
"A  c #5C3522",
"S  c #543B25",
"D  c #593A2A",
"F  c #473A31",
"G  c #5C352F",
"H  c #653925",
"J  c #6B3C26",
"K  c #6A3B26",
"L  c #6E2C29",
"P  c #4A1620",
"I  c #6C6B0D",
"U  c #58473B",
"Y  c #4F4238",
"T  c #684A2E",
"R  c #75422A",
"E  c #7D462C",
"W  c #6D4D31",
"Q  c #775635",
"!  c #032D4C",
"~  c #052843",
"^  c #132944",
"/  c #042F50",
"(  c #043356",
")  c #04355B",
"_  c #07385F",
"`  c #163D4C",
"'  c #043962",
"]  c #033E6B",
"[  c #063860",
"{  c #2E4549",
"}  c #04416E",
"|  c #034373",
" . c #02477C",
".. c #02497E",
"X. c #125067",
"o. c #434343",
"O. c #4A4A4A",
"+. c #5B4C41",
"@. c #555555",
"#. c #5C5657",
"$. c #5F584E",
"%. c #685649",
"&. c #735F50",
"*. c #70574E",
"=. c #7E6858",
"-. c #786355",
";. c #646464",
":. c #6C6C6C",
">. c #626C67",
",. c #797979",
"<. c #746666",
"1. c #841217",
"2. c #8D1418",
"3. c #861318",
"4. c #931419",
"5. c #9D151A",
"6. c #AB161C",
"7. c #A4141A",
"8. c #B4161C",
"9. c #BB161D",
"0. c #BC181F",
"q. c #A12227",
"w. c #C6181E",
"e. c #CC1A21",
"r. c #C51920",
"t. c #D41A21",
"y. c #DB1B22",
"u. c #E41B23",
"i. c #EC1C24",
"p. c #F11D25",
"a. c #ED242C",
"s. c #864B2F",
"d. c #884C2F",
"f. c #80472D",
"g. c #894C30",
"h. c #874B30",
"j. c #845F3B",
"k. c #8A633D",
"l. c #836C5C",
"z. c #95704D",
"x. c #A77749",
"c. c #B27F4E",
"v. c #8B7361",
"b. c #957B68",
"n. c #807F7D",
"m. c #AF6466",
"M. c #F26D72",
"N. c #E25359",
"B. c #928D04",
"V. c #A09800",
"C. c #D6CB00",
"Z. c #FEF200",
"A. c #BA8551",
"S. c #9D826E",
"D. c #9A8372",
"F. c #A78C77",
"G. c #B4957E",
"H. c #A9907D",
"J. c #D7995D",
"K. c #C88F57",
"L. c #E6A362",
"P. c #F5AE69",
"I. c #F1AB67",
"U. c #034D84",
"Y. c #014F89",
"T. c #02518C",
"R. c #025A9C",
"E. c #025594",
"W. c #025DA3",
"Q. c #0162AC",
"!. c #0160A7",
"~. c #0066B2",
"^. c #0068B5",
"/. c #29859B",
"(. c #3691A7",
"). c #639EAD",
"_. c #848484",
"`. c #8D8D8D",
"'. c #898484",
"]. c #989797",
"[. c #938E87",
"{. c #BD9C83",
"}. c #A4A4A4",
"|. c #ABABAB",
" X c #B2B2B2",
".X c #BCBDBC",
"XX c #B4B1AF",
"oX c #C19F86",
"OX c #C9A68C",
"+X c #C8A78D",
"@X c #D1AD92",
"#X c #DBB699",
"$X c #D8B296",
"%X c #CFAA90",
"&X c #E3BB9E",
"*X c #D5B2B4",
"=X c #EDAFA2",
"-X c #ECC3A4",
";X c #F1C6A7",
":X c #F5C9A9",
">X c #FCCFAE",
",X c #F2C7A8",
"<X c #FDD0AF",
"1X c #FFD2B1",
"2X c #A6BFC4",
"3X c #CBCBCB",
"4X c #C2C2C2",
"5X c #C9D2D3",
"6X c #D3D3D3",
"7X c #DBDBDB",
"8X c #D8D7D7",
"9X c #D9C4C5",
"0X c #FBC9CB",
"qX c #E3E3E3",
"wX c #EBEBEB",
"eX c #F3F3F3",
"rX c #FEFEFE",
"tX c #F9F2F2",
/* pixels */
"                                                                                                                                ",
"                                                                                                                                ",
"                                                        . X , < f , .                                                           ",
"                                                    . > b 6.t.u.w.L #.t .                                                       ",
"                                                  % x w.p.i.i.u.L  XtX*Xo.                                                      ",
"                                              . > 6.i.i.i.i.p.9.<.tX0XN.N.:                                                     ",
"                                            . < w.p.i.i.i.i.i.7.'.rX=Xp.N.f..     . , g x 1.x #                                 ",
"                                          . 1 e.i.i.i.i.i.i.i.9.<.rXM.a.0X9X3 X f 4.e.u.p.i.y.>                                 ",
"                                          # 0.i.i.i.u.i.i.i.i.u.L 4XM.p.*X:.j 7.u.p.i.e.e.i.5.X                                 ",
"                                        X 4.i.i.i.i.i.i.i.i.i.i.9.*.*Xm.P c y.p.i.e.3.4.y.e.1                                   ",
"                                      . g u.i.i.i.i.i.i.i.u.i.i.p.0.P P 8.i.i.i.6.h 6.i.t.f .                                   ",
"                                      # 0.i.i.i.i.i.i.i.i.i.i.i.y.z g 3.c 4.t.1.< r.i.0.< .                                     ",
"                                    . z i.i.u.i.u.i.i.i.i.i.i.t.g x 2.X O . , F V 6.2.,                                         ",
"                                    # r.i.i.i.i.i.i.i.i.i.p.r.f 3.u.x < l 2 F &.b.& X                                           ",
"                                    g i.i.i.i.i.i.i.i.u.p.9.< 2.u.u.4.z V &.H.F.&X+.                                            ",
"                                  X 5.i.i.i.i.i.i.i.i.i.9.4 C N z G G b.F.].6X'.D.oX;       - u F F 3                           ",
"                                  > t.i.i.u.i.i.i.i.i.8.j H.:X@X+X#X,X1XD.7X5X(.{ OX%.. 5 -.{.&X:X;X%XU .                       ",
"                              . > l u.i.i.i.i.i.i.i.8.> +.>X1X1X1X1X>X>XD.8X2X/.{ v.OX+.OX<X1X<X1X1X1X&Xu                       ",
"                            % c e.0.i.i.i.i.i.i.p.9.1 Z B -.+X#X-X1X>X1X{. X5X/.{ T :X:X<X>X>X>X>X>X>X1Xl..                     ",
"                          . c i.i.u.i.i.i.i.i.y.8.1 Z g.E H D D U G.1X>X;XD.3X).X.#.>X>X>X>X>X>X>X1X>X1Xv..                     ",
"                          % e.i.i.i.i.i.i.y.v L G u D f.d.d.d.d.N %.:X>X&XoXF.[.>.+X1X1X<X>X<X>X>X>X>X>X+.                      ",
"                          # e.i.i.i.i.i.i.x &.&X:X&Xb.C J d.d.s.n S.1X-XF y v.OX:X1X1X&X:X1X<X<X1X1X>XS.-                       ",
"                          . 2.p.i.i.i.i.t.V #X>X+X{.-X%XT A f.d.A *.1XOX+ . . 5 +.l.=.y %.{.&X-X#XG.%.$                         ",
"                            , 8.i.i.i.p.w.F -X>X$Xl.+.$X-X=.C N 6 l.<X&Xu . . . . . . . . + 5 u y -                             ",
"                              , 2.t.i.i.c 3 $X1X>X$X&.v.<X>X@XH.G.-X1X<X%X=.Y X . . . . . . . .                                 ",
"                                X f 1.1.2 4 =.>X1X<X&X{.<X<X<X1X1X1X>X>X1X1X-X+.. . . X . . . .                                 ",
"                                      . & K n =.&X<X1X1X<X<X>X>X>X>X>X>X>X>X1X&Xv.%.l.G.&.u .                                   ",
"                                        3 H f.N C -.S.F.v.OX<X>X>X>X>X>X1X>X>X>X<X<X1X1X;X&.                                    ",
"                                      . 6 A N M m 4 3 3 & 5 F.;X1X<X>X>X>X>X>X>X>X>X1X&XY $                                     ",
"          y O.#.:.;.@.t - :.,.p . , < f h x 1.3.2.4.2.3.v h f U S.$X:X>X1X1X1X1X1X1X#XU .                                       ",
"      p _.4X}. XwXrXeX7X}. XrX8Xo.l y.i.p.i.p.i.p.i.i.i.i.i.u.7.> e O.-.b.F.{.H.F.=.u                                           ",
"    ;.7XrXrX].`.7XrXrXrXrXrXrXrX6Xi w.i.i.i.i.i.i.i.i.i.i.i.i.i.6.e Y. .( : v j +                                               ",
"  a 3XrXrXrXeX X}.qXrXrXrXrXrXrXrX,.x i.i.i.i.i.i.i.i.i.u.i.i.i.i.x | ^.Q.[ 3.t.g . $ a :._.}. X].#.+                           ",
". a 6XrXrXrXqX;.`.wXrXrXrXrXrXrXrX.Xj u.i.i.i.i.i.i.i.i.i.i.i.i.i.w.e !.^.Q.^ 6.w.> :.3X]. XrXrXrXqXt                           ",
"+ }.eXrXrXrXrXrX3X,.3XrXrXrXrXrXrX8XV y.i.i.i.i.i.i.i.i.i.p.i.i.i.i.z Y.^.~...4 t.5.t '.#.`.eXrXrX].a t                         ",
"t  X|.eXrXrXrXrX`.:.eXrXrXrXrX6X5XqXi 8.8.7.4.2.c 1.1.1.2.4.t.i.i.p.7.[ Q._ I I k j : |.eX`.,.}.:.:.7X:.                        ",
"- p 3XrXrXrXrXrXrXrXrXrXrXrXrX X}.4X- # X X   . . l 5.5.4.1.w.p.p.y.c ~ ..I Z.Z.B./ ) @.tXrX;.;.3XrXwX{                         ",
"  o.rXeXeXrXrXrXrXrXrXrXrXrXrX:.O.a             8 e 1.u.p.p.i.w.1.d ( ~ _ B.C.Z.C.` E.e 7XrX|.;.3X}.>.,.t                       ",
"  y .X`.qXrXrXrXrXqX3XwXrXrX6Xt               .  .W.[ P 9.9.z s ] R.~._ ( I V.C.C.r !.9 '.3X;.@._.].5X5Xt                       ",
"    y t 7XrXrX6X:.a ].wXrXqX@.                7 W.~.~.T.^ ^ U.!.~.~.~.Y.~ ` I B.I q Q.~ @.`.;.n.wXeX*X@.$                       ",
"      . ;.qXrX7X}.t .XwX.XO.                . ] ~.~.~.~.~.Q.~.~.~.~.~.Q.) ( | X.w [ ^./ v.tX8Xo.,.,.`.].;                       ",
"          a ;.:.O.+ ; a ;                   @ E.~.~.~.~.~.~.~.~.~.~.~.~.!.} ( ) ] W.^.! ).rXqX#..X8X.X@.                        ",
"                                            7 Q.~.~.~.~.~.~.~.~.~.~.~.~.~.^.Q.Q.~.~.~.q ,.3X Xo.y a                             ",
"                    $ T S & m m 3 X         9 Q.~.~.~.~.~.~.~.~.~.~.~.~.~.~.~.~.~.^.W.8 - 3                                     ",
"                    W P.Q H g.g.f.6 .       7 Q.~.~.~.~.~.~.~.~.~.~.~.~.~.~.Q.T.| | ] o                                         ",
"                  5 J.K.Z s.d.d.J ; ! ) *   = R.~.~.~.~.~.~.~.~.~.~.~.Q.~.~.~.Q.R. .! =                     & n A A N 3 X       ",
"                  W P.W J g.g.E 3 | ^.~./ * . ] ~.~.~.~.~.~.~.~.~.~.~.~.~.~.~.~.^.^.~.R.| q @           X 6 R g.d.d.g.f.6 .     ",
"                  C c.Z g.g.g.m ! ~.~.~.!.E.[ 7 R.~.~.~.~.~.~.~.~.~.~.~.~.~.~.~.~.~.~.~.~.Q.Y.! = @ 9 8 2 E g.s.d.s.g.g.R $     ",
"                $ k.W J g.d.f.3 T.~.~.~.~.~.~./ ~ W.~.~.~.~.~.~.~.~.~.~.~.~.~.~.~.Q.~.~.~.~.^.Q.T.U.Q.E.; R d.d.d.d.g.g.R 5 2   ",
"                T A.S h.d.d.J w Q.~.~.~.~.~.~.!.! q T.~.^.~.~.~.~.~.~.~.~.~.~.~.~.~.~.~.~.~.~.~.~.~.~.!.9 J g.d.d.s.g.g.Z c.x.o ",
"              6 J.Q R h.d.d.N ( ~.~.~.~.~.~.~.~.Q.| 9 / U.!.~.~.~.~.~.~.~.~.~.~.~.~.~.~.~.~.~.~.~.~.~.Q.8 J g.s.s.s.d.J T P.k.X ",
"            o x.J.Z f.h.d.d.n ] ~.~.~.~.~.~.~.~.~.~.W.] q q [ T.!.~.~.~.~.~.~.~.~.~.~.~.~.~.~.~.~.~.~.W.0 R d.d.d.s.s.Z K.L.6   ",
"            S P.k.H g.s.d.g.6 ] ^.~.~.~.~.~.~.~.~.~.~.~.Q.T.[ ~ q _ U.W.~.^.~.~.~.~.~.~.~.~.~.~.~.~.~.Y.3 f.s.s.d.d.J Q P.Q .   ",
"          $ A.J.S s.d.d.s.g.n ' ^.~.~.~.~.~.~.~.~.~.~.~.~.~.^.Q.| * . 8 ! | R.Q.^.~.~.~.~.~.~.~.~.~.~.' n g.g.s.s.s.S J.x.$     ",
"          B P.x.A g.s.s.s.h.A 7 !.^.~.Q.~.~.~.~.~.~.~.~.~.~.~...8 .       . = q } R.~.~.~.~.~.~.~.~.!.w A g.h.s.d.A x.K.5       ",
"        . W P.T R s.s.h.s.s.s.4 ~ ..( !  .W.~.~.~.^.^.^.~.R./ @                 . = ! U.Q.~.~.~.~.~.T.; E g.s.d.R T K.B         ",
"          5 Q m s.d.s.d.s.s.d.R & .     O 8 ~ ' | .. .] ~ = .                       . @ w ..Q.^.~.Q.! n d.s.s.s.Z z.S           ",
"            . n g.s.s.s.s.d.g.A +               . O .                                     O ! Q.^.U.; R d.d.d.H j.j.X           ",
"              & H d.g.d.s.s.N $                                                             O '  .8 N d.s.d.R Y L.x.X           ",
"                $ n A H m 4 o                                                                 . . n d.d.d.f.Z A.L.n             ",
"                      X                                                                           2 A E s.M k.I.T               ",
"                                                                                                    o & 2 $ S S +               ",
"                                                                                                                                ",
"                                                                                                                                "
};
