/* XPM */
static char *_dedc234ba4e47cdbcdd293f441cc696GMf2mVhO5q9qLcQR[] = {
/* columns rows colors chars-per-pixel */
"64 64 164 2 ",
"   c None",
".  c #5C4B45",
"X  c #5E4E48",
"o  c #4C594A",
"O  c #565345",
"+  c #585646",
"@  c #56554A",
"#  c #5D524A",
"$  c #5A594B",
"%  c #5E5E52",
"&  c #604F4A",
"*  c #62524C",
"=  c #635B4C",
"-  c #675651",
";  c #685752",
":  c #635D51",
">  c #6B5B56",
",  c #705F5B",
"<  c #5F654D",
"1  c #636051",
"2  c #6C6557",
"3  c #69615D",
"4  c #646B5E",
"5  c #70605B",
"6  c #60755F",
"7  c #6D6563",
"8  c #656D62",
"9  c #6F6967",
"0  c #716B69",
"q  c #6B7165",
"w  c #6C7B66",
"e  c #73756B",
"r  c #757F6C",
"t  c #7E7673",
"y  c #807775",
"u  c #817976",
"i  c #857E7C",
"p  c #1B955D",
"a  c #1E985B",
"s  c #3C974E",
"d  c #379E4C",
"f  c #389F4B",
"g  c #288459",
"h  c #238E5C",
"j  c #25905D",
"k  c #229A59",
"l  c #3F9B50",
"z  c #2EA54E",
"x  c #30A74D",
"c  c #39A14E",
"v  c #32A94D",
"b  c #2EA550",
"n  c #37A150",
"m  c #3CA452",
"M  c #3DAE53",
"N  c #3EA758",
"B  c #3FA859",
"V  c #3FB053",
"C  c #0F8C69",
"Z  c #108C68",
"A  c #179262",
"S  c #189360",
"D  c #279362",
"F  c #2B9664",
"G  c #2E9967",
"H  c #2B976A",
"J  c #429C54",
"K  c #43A653",
"L  c #45A955",
"P  c #46A15A",
"I  c #44AA59",
"U  c #4CAF5E",
"Y  c #40B053",
"T  c #49B559",
"R  c #7B8376",
"E  c #7D857A",
"W  c #87807E",
"Q  c #88817F",
"!  c #828A7E",
"~  c #8FBE7D",
"^  c #8BC87E",
"/  c #86D37F",
"(  c #88D37F",
")  c #7E8780",
"_  c #7F8880",
"`  c #8B8482",
"'  c #858C81",
"]  c #8F8987",
"[  c #908987",
"{  c #928B8A",
"}  c #849380",
"|  c #A79C9C",
" . c #A89C9C",
".. c #A2A59E",
"X. c #A0B19F",
"o. c #ABA3A3",
"O. c #ADA2A3",
"+. c #ADA3A3",
"@. c #AEA3A4",
"#. c #AFA3A5",
"$. c #ADA3A4",
"%. c #AEA4A4",
"&. c #ADA2A3",
"*. c #A7ABA4",
"=. c #A7ACA5",
"-. c #A5ABA5",
";. c #A9ACA5",
":. c #AFADA4",
">. c #A9AFAC",
",. c #B1A6A7",
"<. c #B1A6A7",
"1. c #B0AEA5",
"2. c #B2A7A8",
"3. c #B2A6A8",
"4. c #B1A6A8",
"5. c #B2A7A8",
"6. c #B1A8A9",
"7. c #B2A9AA",
"8. c #B3A9AA",
"9. c #B2A9A8",
"0. c #B6ACAE",
"q. c #B7ADAF",
"w. c #B6ADAE",
"e. c #B7AEAF",
"r. c #B6ACAD",
"t. c #B4ABAC",
"y. c #B8ADAF",
"u. c #B8ADAF",
"i. c #AEB1A9",
"p. c #ACB1AB",
"a. c #B7AEB0",
"s. c #B8AFB0",
"d. c #B8AEB0",
"f. c #B8ADB0",
"g. c #B8AEB0",
"h. c #BBB1B3",
"j. c #BCB2B4",
"k. c #BDB3B5",
"l. c #BCB2B4",
"z. c #BAB8B1",
"x. c #8CCB81",
"c. c #8DCC82",
"v. c #8DCC82",
"b. c #93C585",
"n. c #90CE86",
"m. c #95CF85",
"M. c #96CE85",
"N. c #98CF86",
"B. c #87D480",
"V. c #88D480",
"C. c #91D785",
"Z. c #92D785",
"A. c #91D786",
"S. c #92D785",
"D. c #91D885",
"F. c #91D985",
"G. c #92D885",
"H. c #91D885",
"J. c #97D288",
"K. c #95D389",
"L. c #9AD58C",
"P. c #9EDE8D",
"I. c #9FD890",
"U. c #A1D991",
/* pixels */
"                                                            k.h.h.k.k.k.                                                        ",
"                                                            q.r.r.q.f.s.                                                        ",
"                                        ] ] ` { u.,.- . . * ` ] [ { ] { q.,.- . . .                                             ",
"                                        ` ` ] ] q.3.* . . * i ` ` ` Q ] q.,.- . * *                                             ",
"                            k.,.; & W ] ` ` ` ` q.3.- . . * W ` ` ` ` { u.9.- & u Q ` { u.3.* .                                 ",
"                            q.@.3 > u Q W i ` { 7.+.5 * . & Q ` ` ] ` ] +. .* * W ` ` { u.3.- .                                 ",
"                    . * i ] { { %.| > * 7 0 ` ` ] { @.| * * i ` ` ` ` W > * . * i ` Q { u.,.- . . * i `                         ",
"                    . * u W W { 7.o.- . 3 9 i ` ` { f.7.; * u Q W ` W u * . * ; W ] [ { O. .- . & - W ]                         ",
"                . . . . 9 0 Q ] ] ` X . X & 7 0 ` { f.3.> . 7 0 9 9 9 7 . * u i ` { 7.@.2 * & & u i ` { r.k.                    ",
"                ; * . & 3 7 W ` ] i > * . X , 9 i ` -...% + 4 8 8 8 8 4 * * i ] ] { @. .> * & ; ` ` ` ] q.h.                    ",
"            ` { %. .* . . # 7 0 W ] %.| * . X & 7 8 P M c f c c c c c l 4 7 ` { 8.,.5 > u Q W W ` ` ` { u.7.; .                 ",
"            ` { 7.@.> * - > 3 7 W { 7.o.1 + O $ 9 w L V Y V Y Y Y Y Y L w e E ' ;...* & u W ` ` ] ] { { %. .> *                 ",
"        . * i ` ] ] W ` O. .; * i ` ] ' l c f K v.J.D.D.D.D.D.D.D.D.D.D.J.v.I m B J + . 9 0 ` ] 3.f.f.%.2 > u ` q.k.            ",
"        . * u W W Q ` { s.7.1 $ R ' ] } I V V T ( F.D.D.D.D.D.D.D.D.D.D.D.B.T V Y K < = 4 q ` { @.,.7.| > - i [ 3.q.            ",
"        . # 7 9 0 0 W ] q.i.P c m I n.L.D.D.D./ T V Y Y V V V V Y V V Y V T / D.D.D.J.^ L P ;.+.5 - - > u i ` ` ] { s.k.        ",
"        . . 3 7 3 9 W ` +...L v V T / D.D.D.D./ M x x v x x x x v x v z v M / C.D.D.D./ T T -...: O . * i ` ` ` ` { O.,.        ",
"    . . . . . . X X 9 9 ; % f V / / T V V Y Y M k k a k a a a a a a a a a k M Y V L M T V.V.T B c s 4 7 Q ` ` ` ] W > -         ",
"    . . . . * * - ; 3 3 = < K T B./ M z z x z z k p p a a p a a a a a a a k z z x x z M B.B.T V V L 8 9 Q ` ` ` i t . .         ",
"    . . . * u Q @.| - * ~ J.D./ T M k a a a k k z x x x x x x x z x x x z z k a a a a k M T / D.C.c.e 9 Q ` ` i * & . .         ",
"    . . . * W { 7.%., 2 ^ F.D./ M z a p a p a k M Y Y Y L V V V V V V V L M k a a a p p z M / D.D.c.r e i ` i u * . * *         ",
"    . . 3 7 W ] { { #.*.T V L M k p p a z x x M / D.D.D.D.D.F.F.D.D.D.D.G.( M x x z a p a k V V V T V.b.e 9 * & . * u ` q.k.    ",
"    . X 7 9 i ` ` ` 8.-.I v x b a p p k M M V T ( D.D.D.D.V.F.F.D.D.D.D.D.( T V V M a p S a b x v M / ^ q , * * * - W { q.h.    ",
"    . # 3 9 9 0 ` ` ] ' m v k p p p z M / D.D.( T V Y Y Y Y V V V V V V Y T ( D.C./ M b p p a a v v Y K + * i i i W ` ] q.k.    ",
"    * * 3 3 7 7 i i i R m b k p a k M T ( D.D./ M v x x x v z z z v z v x M / C.C./ T M k p a a x x v c + * i ` ` ` ` ] O.,.    ",
"] ` i u * X X X * X * $ h a b v x M / / T V V V v x a a p a a a k a a a x v Y Y V T B./ M x v n k k v c 4 9 W ` ` ` ` i > -     ",
"W ` ` W - & . . . . O o h p x v L T / / V v v z v n a p p p p p p p p a z v x x v V / V.T V v v a a z n 6 q i i i i i u > -     ",
"0 0 ` ` i u & . . O g h p p x V / / T V v v a a a p p p p p p p p p p p p a a k v v V T B./ V z a p p k d l q 9 * * X >  .7.h.k.",
"7 7 i W ] i > ; - % h p p k M T / / M x v b a p p p a a a p a a p p p p p p p a b x x M / B.T M k p p p b n 4 7 * * & > O.f.h.j.",
"X # 7 0 ` ] @.,.#...H p z M / V.T M k a a a p p p p b z z v x x x x x b p p p S p a p k V T / / M z p p p h O * u i i Q ] { s.k.",
". X , 9 i ` >.h.j.>.G k M T ( ( V x p p p p p p a a M V Y V L Y V V L M k p p S p p p a x V / / T M k p p h @ * i ` ` ` ` ] O.,.",
". . . X 7 0 ` { f.;.N M B.B.T M v v a p p p S p z M B.D.D.D.D.D.D.D.C./ M b p p p S S a x v V T B./ M b p h 4 9 ` ` ` ` ` i > - ",
". . . . 7 7 t ` O.-.N M C.C.M v v b a p p S p a M T / D.D.D.D.D.D.D.C.B.T M k p p p p p b v v V D.D.L x p h 8 0 W ` ] ` i u & . ",
". . . . # . * * * < c V D.D.Y v k p p S S p z M / V.T V V V V L V V V T B./ M z p p p p a a v Y C.D.Y x a j 8 0 W ` ` i - X . . ",
"X . & * * * - * . O K T / / L x a p p p a a M T V./ M v v x z x x x v V / V.T M k p p A p a x Y / V.T M k j 4 7 i i W u > - - - ",
"7 7 i i i ` O. .* = ^ / T V v v a p p p b M ( ( T V v v a a k a a a v v M T B.B.M b p p A a x v M T B./ M f + & X * & > | 3.3.3.",
"3 9 W ] ` { 7.O., 2 J.F.V v x b a S p a M T ( / M v v z p p S p p p z v x M / B.T M k p p p b x v V D.D.Y f + & # & & > o.f.j.j.",
". * W ] ` ` ] { 3.:.L.C.Y v k p p a b M / V.T M v v k a Z C S S C C a a v v L T / / M z p p a k v Y D.D.Y c 4 9 i i i i ] { f.j.",
". * i W ` ` ` { u.z.U.D.Y x a p p p b V D.D.V v v b p A C C p p C C A p x v v V D.D.V x p p p a x Y D.D.Y c 8 9 ` ` ` ` ` { f.j.",
". X 7 0 ` ` ` ] u.z.U.D.Y x p p p p x V D.D.Y v k p Z C S p b b p A C C a a v V F.F.M z a p p p x Y D.D.Y c 8 0 i ` ` ] ` ] q.j.",
". . 7 9 u i i ` O.1.I.D.Y x a p p p v Y D.D.Y z a p C Z S k M M k p C C p a x V F.F.L z a p p p x Y D.D.Y c 4 7 i ` i i i ` o.4.",
". X 7 7 # * 9 9 ; 2 J.D.V z a p A p z Y D.D.Y x a p S p b M / / M b p S p p z Y D.D.Y x a S p p v Y D.D.Y c O * 9 9 9 7 # * - - ",
". . 3 3 . X , 3 . = M.D.V v p p p a v Y D.D.Y x a S S p b M ( V.M b p S p p x V D.D.Y x a p p p v Y D.D.Y c $ * > 7 7 7 ; ; - - ",
". . . . . . . X . = M.D.M x a S p p v Y D.D.Y x k S C Z S k M M k p C C p p v Y D.D.Y x a S p p x V D.D.V c R u # X X ; | 3.4.%.",
"* * * * # - - - . = M.D.Y v a p S p z Y D.D.Y x k S C C A p b b a S C C p a v Y D.D.Y x k S p a v Y D.F.Y m ! W ; # X > o.f.j.j.",
"i i i ` o.4.3.| * = M.D.V x a S p p x V D.D.Y x v b p A C C p p C C S S b v x Y D.D.V v a p p p z Y D.D.V m ! ` i i i W { { h.k.",
"` ` ` { 7.f.f.%., 2 M.D.V v a a p a z M / ( T V v v k p Z C S p C C S k v M M T ( / M z p p p a x Y D.D.V m E ` W ` ` W i W o.%.",
"9 0 ` ` ] { { { @.:.P.D.V v v b p p p k M T ( ( V v v b p S p S S p b x v V / B.T M k p p p b v x V D.D.V c q 0 0 0 ` i - * - - ",
"7 0 i W ` ` i ` @.:.J./ T V v x p p p p z V / ( T M v v k p a p a a x v M T B./ M z a p p p v v V T ( / M n 4 3 7 7 i t * . * - ",
"7 9 9 0 ` i - * - : K T / / M v k p p p p k M T B./ M v v z v x v z v V B.B.T M k p S p p a v V / ( T M k h @ . X . * * . *  .8.",
"7 3 7 9 i u X . . O f V D.D.M v k p p A p a z M / B.T M Y V V V V V V T B.B.M b a p p p p a z Y D.D.Y x p h $ * * * ; * . *  .8.",
"X # 7 7 * X . . . O c V D.D.Y x v b p p p A a a M T ( D.D.D.D.D.D.D.D./ T m k a p p p p b v x Y D.D.Y x a D R i i ` O.| * . ; > ",
". . 7 : X . - ; * : d M ( / T Y v z a p p p p p z M ( G.D.D.D.D.D.D.D.B.M x a p S p p p v v V T B./ M x p D ) ` ` ] 7.%.5 * . . ",
". . X X . - | 3.3...F a M T ( / V v a p p p p p a k M L V V V V V Y Y M k a S p p p p p z M ( V.T M k p p D ) ] ] ` [ { %. .* . ",
". . X * X > %.s.j.p.H p z M / V.T M k p p p p p p p z x x x x x x x x z k S S p p p a k M T V./ M z a p a D R ` ` ` ` ] 7.O.5 * ",
". X u W i W { { f.>.H p a k M T ( / M z z z a p p p a p a a a a a a p p S a S a b v b M / V.T M k p p a z n 8 0 ` ` ` ] { { ,.8.",
". X W ` ` { ` ` 4.-.F p p a v M / / T V v z a a p p S p p p p p p p p p S a a a x v M T V./ M v a p p k V L 8 9 i ` Q ` i Q O.9.",
". * W ` ` Q ` ` { ' m z a p v v M T / / V x x x v z p p p p p a p p p p b x x x v V ( V.T M v v a a z M / ^ : & 7 0 W i ; & - - ",
". * u i i i i i i R m v a k n v z M / / T Y Y Y v x a a p p a a p p p k x v Y Y M T V./ M x v z a a v Y D.M.= . , 9 i u > - - - ",
". . & * * X * * # $ d x v b a a a k M T ( D.D.( M x x x z x v v x x x x v M V.D.C.( T M k a a k b v x Y D.M.= . . X & > | 3.@.3.",
"* & & & * * ; * X + K M v v a a p a z M / D.D.( T Y Y V V V Y T Y Y Y Y Y T V.G.C./ M z a p a a v v V T ( ^ : . # # & > O.f.j.k.",
"i i i Q W ` O. .* = ^ / V v v x a p a k M Y V T ( G.D.D.P.( P.F.D.D.D.D.D.( T Y Y M k p p a z v v V / V.T K 8 7 i W W W ] { f.k.",
"` Q Q ` ` ] 7.O.* = ^ / T V V M k p p p z x z M / D.D.D.( ( ( F.D.D.D.D.G.( M z x b k p p k M Y Y T V./ M d 4 9 i W ` W ` ] o.3.",
"0 0 0 0 Q ` [ Q * + m T B.D.D.B.M z p p a a a k V Y Y Y Y Y Y Y Y Y Y Y M M k a a p p a z M / D.D./ T M k h @ * 7 0 ` ` ` i > - ",
"7 7 7 0 Q Q ` i * + c V D.P.P.D.V x p p p p p a x v v v v v v v v v v v x v a p p p p p x M D.P.P.D.V z a h @ . 3 0 Q ` ` i X . "
};
