/* XPM */
static char *_a67cf0450274811ac9138be41eee0a6ZpAdbEUtnoghPvF3[] = {
/* columns rows colors chars-per-pixel */
"64 64 227 2 ",
"   c #0E0000",
".  c #140100",
"X  c #1B0400",
"o  c #1D0901",
"O  c #1B0D07",
"+  c #220700",
"@  c #240D02",
"#  c #2B0E03",
"$  c #260F09",
"%  c #261104",
"&  c #2C1205",
"*  c #25120B",
"=  c #2C150A",
"-  c #2D190D",
";  c #2F1904",
":  c #311503",
">  c #391B06",
",  c #32160B",
"<  c #341A0D",
"1  c #3A1D0D",
"2  c #351B04",
"3  c #2E1B12",
"4  c #2B1510",
"5  c #341C12",
"6  c #3A1E13",
"7  c #351B17",
"8  c #300C00",
"9  c #3C230F",
"0  c #37200C",
"q  c #352113",
"w  c #3C2215",
"e  c #3E2815",
"r  c #36221A",
"t  c #3C241A",
"y  c #3D291C",
"u  c #2E2017",
"i  c #3B2522",
"p  c #3E2A21",
"a  c #411F15",
"s  c #44220F",
"d  c #432415",
"f  c #492514",
"g  c #442B15",
"h  c #4B2A16",
"j  c #43251A",
"k  c #49261B",
"l  c #442A1C",
"z  c #4B2B1D",
"x  c #512E1C",
"c  c #47301D",
"v  c #4B321E",
"b  c #4A3115",
"n  c #53321D",
"m  c #553C1C",
"M  c #49310F",
"N  c #442C22",
"B  c #4B2D22",
"V  c #442B28",
"C  c #522E23",
"Z  c #463225",
"A  c #4D3224",
"S  c #4F3824",
"D  c #453229",
"F  c #4C352A",
"G  c #4E3A2D",
"H  c #523324",
"J  c #533B25",
"K  c #5A3C23",
"L  c #53362A",
"P  c #533B2C",
"I  c #5A3C2D",
"U  c #593728",
"Y  c #4E3A31",
"T  c #4E3433",
"R  c #503730",
"E  c #543D33",
"W  c #5A3E33",
"Q  c #583F38",
"!  c #563F39",
"~  c #57402E",
"^  c #5B422D",
"/  c #5D4426",
"(  c #554135",
")  c #5C4334",
"_  c #5F4933",
"`  c #564339",
"'  c #5C443A",
"]  c #5D493B",
"[  c #62452D",
"{  c #654B2C",
"}  c #6A4C2E",
"|  c #644724",
" . c #704F2E",
".. c #614534",
"X. c #644A34",
"o. c #6B4D35",
"O. c #62463B",
"+. c #644A3D",
"@. c #694E3A",
"#. c #6D5233",
"$. c #66513D",
"%. c #6D523C",
"&. c #725234",
"*. c #72543D",
"=. c #74593C",
"-. c #7B5C3C",
";. c #715A35",
":. c #6A542D",
">. c #7B613D",
",. c #5E4A41",
"<. c #614740",
"1. c #644C42",
"2. c #6A4E42",
"3. c #664F4A",
"4. c #665044",
"5. c #6C5244",
"6. c #6D5846",
"7. c #665249",
"8. c #6D544A",
"9. c #6F5949",
"0. c #725642",
"q. c #755A44",
"w. c #7A5D45",
"e. c #72564A",
"r. c #745B4C",
"t. c #7A5E4A",
"y. c #745D52",
"u. c #7A5E53",
"i. c #755E58",
"p. c #6F5B52",
"a. c #7E6244",
"s. c #7C614C",
"d. c #77634A",
"f. c #776051",
"g. c #7B6353",
"h. c #7C6956",
"j. c #7B6459",
"k. c #7E6A5A",
"l. c #736258",
"z. c #826643",
"x. c #846D44",
"c. c #81644C",
"v. c #846C4B",
"b. c #8A6C4C",
"n. c #8C6F45",
"m. c #8D734E",
"M. c #96774C",
"N. c #826652",
"B. c #846A54",
"V. c #896C53",
"C. c #856C5B",
"Z. c #8A6E5B",
"A. c #81665B",
"S. c #8C7352",
"D. c #85705D",
"F. c #8B715D",
"G. c #9B7D54",
"H. c #93755A",
"J. c #967C5B",
"K. c #9A7C5C",
"L. c #937655",
"P. c #A07D56",
"I. c #A27C58",
"U. c #866E61",
"Y. c #8D7562",
"T. c #887365",
"R. c #917663",
"E. c #957B64",
"W. c #9A7D64",
"Q. c #987E69",
"!. c #9B825D",
"~. c #9F8552",
"^. c #A18456",
"/. c #A4845C",
"(. c #AA875F",
"). c #A4895C",
"_. c #AB8C5D",
"`. c #A78855",
"'. c #9D8363",
"]. c #9B816B",
"[. c #9A8572",
"{. c #A38463",
"}. c #A58963",
"|. c #AC8C64",
" X c #A5896C",
".X c #AB8D6B",
"XX c #AA8565",
"oX c #B08F65",
"OX c #B38E6B",
"+X c #AE9166",
"@X c #AD926B",
"#X c #B29264",
"$X c #B4946C",
"%X c #BA966D",
"&X c #B5996D",
"*X c #BA9B6D",
"=X c #AA8E73",
"-X c #AE9174",
";X c #AE9479",
":X c #B49573",
">X c #B69972",
",X c #BA9D74",
"<X c #B59B7C",
"1X c #BB9C79",
"2X c #B2967E",
"3X c #BEA176",
"4X c #BEA27B",
"5X c #BDA97D",
"6X c #C19D77",
"7X c #C2A47D",
"8X c #C4A578",
"9X c #B59B80",
"0X c #BB9D85",
"qX c #BBA285",
"wX c #BCA389",
"eX c #C3A583",
"rX c #C4A984",
"tX c #CAAB84",
"yX c #C5AA8B",
"uX c #CCAD8B",
"iX c #C7A787",
"pX c #CEB18C",
"aX c #D1B48C",
"sX c #D3B691",
"dX c #D6BA93",
"fX c #D9BD99",
"gX c #C8B191",
/* pixels */
"5 c q q q 2 q 9 e l l t w e l e w g g e q % P + = - - & = < , # @ # = = # # & , 3 = X r q - - 3 5 - 4 3 7 7 7 4 = - < < = < 5 7 ",
"Z 7.p.D.T.f.%._ O.5.5.5.e.g.A.C.E.B.q.D.h.q H O.A F S Z V C B B z B H H H B A A E R t ' ` ` ' <.F ( ` ( R L ( ] 4.4.7.8.8.7.<.O.",
"Z $.$.6.r.%.0.5.q.t.q.*.@.*.q.e.F.t.X.h.h.X = 1.A Z A l N j k k d g z z z z z z L P 7 ' ` <.1.7.+.8.f.9.2.2.e.A.7.2.<.1.<.O.] E ",
"e ] ] 4.q.5.*.@.#.%.#.X.X.#.*.*.+.%.$.$.~ X l W A A B t 6 6 6 a s f h x x x x h V N 6 O.O.O.<.2.@.O._ O.@.2.O...1.` E R ( ' ' ` ",
"y $.+.$.%.%.q.&.=.w.w.;.*.w.w.z.t.a.C.f.e & e.E G S B j j j k B f h x x x x x x N j , Q O.<.' O.e.2.2.0.e.t.2.O.] ` R E ' ] ' W ",
"v $.X.^ _ [ q.*.t.c.a.d.=.w.w.w.g.@.h.h.q X 2.B P Z N j j j k B f d d d k h d d N y = ` ' ] ' ` W ..1.1.O.W W Q ' +.<.1.7.1.` R ",
"e q.C.F.H.B.c.%.X.#.=.6.d.s.B.B.q.^ %.h.F X E I W B B B L L C U z j d e j l l d F Z u ' <.1.4.4.2.e.e.e.e.e.e.e.y.e.i.u.i.e.8.1.",
"e %.6.=.q.q.w.&._ $.$.X.X.$.X.X.0.$.5.h.] o B I A w < a B k k k l t 6 5 6 w 6 w Z r % F Y ' ] ,.,.R T F Q <.<.Q ` Q R P F F P E ",
": , , , , , < 6 - q o l q & ; : > 2 0 g h g b n v m | M m #.U U i . V w > w 1 e q l e t w t l B 1 f d t L $ 7 7 < 1 1 6 < 0 < < ",
"B A L L A B A A Z ) d 5.s.].<X2X'.'. X|.'.K.{.-XyX:XyXfXuX{.V.0X4 * U.R.E.N.+.+.+.%.5.6.r.h.Z.U.Q.Q.R.t.2.5 p R P L A A B z z l ",
"d z n H H z z f l R 6 X.c. X1X}.3X3X8X7X7X3X7XtXeX|..X|.|. XI.=Xi 4 O...@.%.%.r.t.t.t.0.%.*.q.q.V.V.N.t.5.< B ` A z l d w j l l ",
"s f x n C n x x F H + K -./.6X#X*X#X#X#X8X8X*X#XOX|.I.M./.$X-.8 O X 6 1 ^ %.6.6.o.o.o.{ { o.*.*.=.&.X.%.0.> 5 e H B l d d l g B ",
"f h h x x n x n V l 2 h..X$X&X_.#X*X*X8X8X*X+X^.$XP.G.%X6X1XH.U * 7 ) I 0.=.%.$.=.w.q.*.&.q.a.w.c.-.0.w.t.6 6 l U H B z j d j k ",
"z f d d d f f j 6 l w '.<X|.`.M.G.+X*X&X_.).).).,X.X#X&XK.V.W.N.* ( g.%.*.[ #.d.w.c.a.a.q.w.w.d.*.c.c.u.0.< l E d d d k k z z z ",
"A z j j l l l j R R q d.S.).rXdXqXtXpXrXrXpXaXsX7XfXfXrXb.&.o.#   D g.q.F.q.s.d.X.#.6.6.q.h.S.D.c.H.Z.t.O.# 7 F d k k k C H L U ",
"6 6 < < 5 6 6 5 * y - $.=.h.}.!.J.v.;.:.>.m.S.x.n.x.>.x.a.c.C.q r 4.q.X.a.%.%._ ^ X.X.X.X.X.X.X.O.2.+.O.O.7 i 7 C k k d k d d k ",
"- p N t t r 5 6 a 6 6 t j N j 7 6 t t t i @ L w g A v g g v S A S P S S I _ ~ A _ S + 3 5 e d 1 a 6 1 < < < 6 7 < , , = = 7 r O ",
"G 1.4.1.8.8.2.8.O.O.Q O.1.2.5.2.6.y.e.3.E 7 f.j.Z.H.F.s.q.d.q.0.0.r.s.B.F.Y.B.t.g.+.o @ w W I U C B B C B C C C C B H A B R E N ",
"p Y ` ] 3.5.<.2.e.8.5.5.e.e.2.2.S ' 5.8.` = ' +...@.@.X.X.%.%.*.X.X.%.*.s.s.q.X.B.r.X o p O.P z 7 a a k N j j N z k x v N L P t ",
"q Y ` ] 1.<.<.2.2.1.1.2.+.Q L B _ R F E P = +.6.%.*.*.*.%.*.q.q.*.#.o.%.*.q.0.*.s.j.@ O N O.z f a 6 a 6 a j a k x x x z k B B > ",
"= F ] ] <.' ' 2.e.5.5.2.2.+.' W 5.' E Q R = +.5.%.%.q.q.q.q.t.c.w.q.*.w.a.a.t.a.6.g.% . - A j z j N j N N k N d x h x z h A z < ",
"= F ` ] O.O.' 5.O.Q W R W ) O.+.) 1.8.8.Q = ' ] [ X.X.%.0.0.w.s.q.q.w.c.B.c.c.s.q.h.e 3 t B d z N B B B B k k a d d z l d B B 5 ",
"D ] 5.7.y.e.8.e.e.y.y.e.y.u.j.A.r.g.e.<.P q j.C.Y.F.F.B.c.q.0.q.d.r.t.B.D.B.B.C.s.f.F E E E z d C B C C B B B B d d l j j Z F r ",
"r p V V R L V V j B F L F B l j e l t i N 5 4.) X.^ ^ _ ^ S v L ~ S A P J S ~ ) ) Z X * = j w > 6 6 6 a 6 6 < < 5 > < - = 7 r $ ",
"A S P ( _ _ ) ) ^ s.P 6 C 7 , 1 t 5 < < 6 1 , = , 1 , , , 7 i $ X.c.;.>.|  .&.{ &.#.#.#.&.*.-.-.;.a.;.=.6.e S ( ~ ) P c l A P P ",
"g.s.s.h.Z.R.Q.Q.C.E.W r Q ' E W B B B A B A H P B C B L B P W N t.L.'.pXtX1X:X:X:X$X$X:X1X7XeXrX5XpXwXV.].S j.1.B.C.B.r.q.q.q.6.",
"^ [ X.#.*.q.0.%.o.N.A = = , l +.6 w j l j j N B x C C C B B I 6 S.J.m.>X|.$X%XeX7X3X,X,X3X1X&X+X`.+X@Xv.J.g e.+.X.%.*.&.%.=.0.=.",
"o.%.*.*.q.q.*.&.q.5.+ X = N l l 6 w w j t 6 d j n U x C z z B & z. X).>X+X1X6X%X4X3X>X>X&X|.G.n.~.~.G.:X Xb J @.#.*.q.q.*.*.*.%.",
"c.w.w.w.w.c.N.V.F.6.X + j ' I A z j l l N z j t h x f z z l B & a..X|.,X/._.$X|.3X,X&X>X>X>X+X(.+X#X+X4X-XJ [ r.X.@.&.=.q.w.w.c.",
"&.*.q.s.a.q.%.X.d.%.X # , R ( ..B N j z B B j j s f e g j l A - V.!.K.,X|./.|.1X+X|././.).+X$X>X3X3X4XS.'.g e.q.o.@.%.*.0.q.a.N.",
"r.s.C.F.F.g.%._ d.^ . # 7 <.I l B B B A F B B B d l l c l Z G q #.V.!.fXsXuXiXuXuXuXaXuXuXpXsXdX5X5X<Xv.E.e 5.] R.F.C.h.d.$.@.6.",
"P S c l c A S S H J X t + j 6 j 5 6 j t 6 < < < < 5 = - * - r O ^ =.} -. .z.-.} | } -.z.w.&. .:.| :./ d.d.q Z E P J J I P A A J ",
"O % & @ & & # # = = # & , , < < 7 = t r 7 = W L J ~ P A c S I P S P S F P _ ' P ] ] % e B.'. X'.'.S.m.S.m.z.x.m.b.L.b.v.H.W.K.H.",
"t F F B A A d z j l l z B A B A I A W P F j e.+.d.C.C.r.6.q.q.6.6.q.s.B.E.].].F.9.[.b b wXdX<X=X>X>X3XtXtX7X7XaXfXdXpXuX1XK.V.W.",
", l N j v z z x x B n H C z z f j w z z z j e.%...%.q.&.%.0.q.0.@.#.%.%.0.=.%.X.~ ].c % d.d.#.:.M.M.~.}.oXI./.oXXX#X$X,X1X XXXeX",
"+ 6 j d k k k x n n n x h f s s 1 > d f d d e.0.&.=.w.q.%.&.*.&.o.o.@.#.=.w.w.w.6.$.% g ].9XwX XXX/.^.(.XX(.(.|.8XaX7X3X7X3X$XXX",
"6 B B B z d d k x x f f d s s s z h v z k f q.o.X.*.0.*.*.=.w.c.q.q.q.a.a.a.t.t.Y.4.% _ 2X9XqX<X$X(./.|.%X%X$XoX(.&XOX|.>X1X$X}.",
"6 F H B B B k x x z z k z z C H P z L H A z u.r.@.&.*.*.*.q.c.N.q.q.a.c.s.0...{ d.h.; m [.;./ L.OXoXOX%X6X6X$XI.|.}.|.}.{.z.-.K.",
"q N V B S H A A z B B A C L P L B j L L P F j.u.F.T.Z.B.d.$.+.%.0.q.s.C.F.C.B.C.6.k.; v qX;XE.;XeXeXtXyXuXiX1X=X@X@X.X:XOXL.L.=X",
"@ < - = < > & : # # = : , = # # 3 & 5 5 , = ( P A S ~ E P S A S P A c c c z A P G 6.e 2 J / ;.{ [ o.#.#.X.o.{ { } &.} | &.*.o.} ",
"B A R R L L W O.! ,.3 W 2.0.q.0.' ~ ) X.+.] _ _ &.q.*.q.0.q.t.K % e B B C k 7 7 a 6 6 6 6 1 < 1 , 1 1 j 7 # B V Z N N p p i y t ",
"1.7.e.e.e.e.e.e.3.8.N <.e.t.B.V.d.q.0.q.r.q.d.s.q.N.V.W.W.W.W.q.l P L C C C k C B B A H H H L L C C N B a t <.3.8.8.8.8.7.5.7.p.",
"2.2.1.+.W L E L ' ,.= P ( ) @.@.0.%.@.@.X.X...X.0.q.o.@.o.t.V.%.t B B N B k 6 a a d d k B B H H L L B F 6 6 ,.8.O.+.5.2.2.2.0.e.",
"5.2.+.) W E W ' R ! = W 5.0.q.q.*.*.=.w.z.q.#.o.%.q.0.w.w.q.q.C < B B C C B j a a a f k k x C C k z j B , $ F ! O.O...+.@.5.5.5.",
"W O.' O.O.O.2.8.p.3.7 ) 5.0.%.X.%.o.*.a.c.c.q.w.t.c.c.B.N.t.r.n = t B N C C k j x x z z z x z C j z l B q 3 E ` O...W ) O.2.@.O.",
"O.<.2.e.e.8.2.1.i.8.7 E +.$.e.#.t.0.%.%.0.0.q.q.B.B.e.t.t.B.V.X.< l j d k k a B C B z k d a d d z l t N e l 7.p.2.+.O.O.2.2.2.O.",
"e.e.e.e.e.2.1.+.Q ] 7 O.t.A.R.E.B.s.e.q.6.0.0.q.q.t.N.Z.Y.U.N.U e A B k B C B C A A z l j j j j w e 5 e q q ` ,.e.e.8.8.7.3.8.e.",
"j t 6 < 5 5 6 6 r D @ A A g g d l e e g c c l z L L j j k x H 8 @ q j a k a 1 a d 6 5 < , > , < < 0 , t 3 * i r 7 t y y 7 5 7 N ",
"I +.+.s.c.@...[ ..o.o.O.o.e.c.c.c.s.T.E @ o ].H.a.5X5X~.#X*X_.`.!.'.'.}.}.@X@X!.J.wXe 7.V T Q B Z F F Z j N A Y ( ' E <.' E E w ",
"1.f.e.g.N.e.w.0.0.w.q.*.*.q.w.q.E.r.+.-   @ =XK.m.<X4X!.$X6X6X6X5X8XsXdXtX3X@Xm.S.-X< 7.,.8.u.e.4.5.8.9.8.8.8.8.y.e.1.p.8.7.8.R ",
"l +.@.6.0.@.*.o.o.*.*.o.o.*.0.*.o.+.9.y @ 0 <X X'.<X X!.XXXXXX#X).).|.$X+X>X8X*X:X4X9 1.! ! W U +.1.+.5.e.5.1.+.Q R F E E W ' N ",
"l 6.%.5.0.0.w.*.&.*.*.o.o.&.-.*.*.d.8.r O w wXqX4XrX:X!.I.I.I._.|.|.8XtX8XrX7X,X!.!.; ` <.3.e.q.2.2.2.5.5.2.O.W +.' R +.<.1.7.F ",
"~ r.5...X.X.q.*.V.V.N.a.c.c.c.N.a.t.( 5 % l E.c.*X*X+X+X#X#X#X8X$XXX#X*X%X$X#XP.:X@Xe ] Q E L L O.<.2.+.O.O.) O.] ' E ] +.` +.N ",
"A 9.q.t.g.q.e.*.X.6.*.$.o.e.c.c.t.Z.j.8.( _ '.v.`.~.~._.#X&X*X5X3X{.G.G.!.}.|.}.a.m.9 ( 3.3.2.e.+.2.2.1.+.+.2.6.i.u.8.i.p.2.8.G ",
"G 6.r.F.E.B.c.w.@.9.p.d.f.h.A.A.a.F.f.p.` $.-X;X5X3X4X5XrXrXgXwX<X.X=X<X-X}.!.m.:.d.y ( <.3.e.e.5.8.2.5.e.8.r.e.O.<.' O.( R ` V ",
"q l 2 w g > 1 s = r e q q < & @ : 0 % r q 0 ^ n / J ~ J S ~ ~ p m h M m m m m m m X.0 u 7 i 7 6 5 = = - 5 7 - * 6 r 6 r 5 3 j , ",
"d j f B B 6 e ( g O.: B l.Z 3 F V N p N D D F N E E R ,.<.' ] j I 6.%.e.q.X.X.[ @.@.*.@.0.t.c.N.F.c.D.Y.5.. w *.B B B B B N a a ",
"g H C C U F D ( _ +.@ 5 8.( ` 8.<.e.j.j.8.7.y.A.y.y.2.e.8.7.8.R P 6.e.g.B.q.0.%.o.o.@.X.@.w.w.w.V.$.+.j.@ + H d +.W B j a N L L ",
"1 h x f C H l e O.P X & ( Y ` ` W ..O.+.@.<.2.O.` Q G E E R W t c ] X.%.q.o.%.o.*.q.*.o.o.*.w.c.w.X.4.k.q Z 2.L L C j 6 6 a a j ",
"s n z f x C A S S < . F h.l.l.7.e.5.2.0.e.t.2.O.O.] E <.+.1.7.R ~ 9.O.$.e.2.w.w.=.=.&.@.o.&.*.*.q.^ F e Z = e q B B B B B N j 6 ",
"v h f f z k B O.2.e + ' j.E Y p W O.@.O.) U W ..` ' E <.,.' 1.F L $.O.@.0.o.0.*.c.c.c.a.a.N.S.V.q.e %   * - Z B L C j N d N C C ",
"z d 1 d j 5 t ` P = X F r.` 7.7.2.0.e.e.e.e.e.e.i.u.e.j.8.2.8.E S 5.5.t.N.q.w.0.$.%.*.%.q.s.d.d.%.~ ] Y   ` k.y.L B N a j B C L ",
"y j 6 6 N i r p @.O.q ) 8.( 3.7.4.` R ( 1.8.<.` ' ,.E ] E P E e ' g.g.C.Z.c.c.w.$.6.6.6.p.r.d.9._ ] k.l.. D Q L B B B B L B B N ",
"* 4 $ @ 4 3 * O & d X = q * - $ $ * % + o X @ $ = , @ = = = r @ = e 1 1 1 8 s 8 3 q q q q q 3 % e % p 3 7 4 @ 4 , 8 8 # # # # # "
};

